<svg width="488" height="434" viewBox="0 0 488 434" fill="none" xmlns="http://www.w3.org/2000/svg">
<g opacity="0.1">
<path d="M370.07 248.842C364.278 248.842 360.054 247.292 357.4 244.191C354.986 240.78 353.78 235.664 353.78 228.842V222.795C353.78 203.26 357.158 187.136 363.916 174.422C370.915 161.399 382.137 148.685 397.583 136.282C406.271 129.77 412.546 124.499 416.408 120.468C420.51 116.437 423.407 112.25 425.096 107.909C426.785 103.568 427.63 97.9866 427.63 91.1647C427.63 79.6916 424.251 70.8542 417.494 64.6525C410.977 58.4509 401.445 55.35 388.895 55.35C369.105 55.35 351.366 62.0168 335.679 75.3504C329.104 82.0201 318.664 83.329 310.931 78.0448L301.621 71.6833C291.608 64.8404 287.478 52.8597 295.074 43.4044C298.692 38.9014 303.623 33.5578 310.338 27.4337C333.583 6.23493 363.192 0 396.497 0C423.527 0 445.369 8.06219 462.021 24.1866C478.674 40.0009 487 62.1719 487 90.6996C487 109.305 483.621 124.654 476.864 136.747C470.106 148.84 459.246 160.313 444.283 171.166C432.457 179.849 424.372 187.911 420.028 195.353C415.684 202.795 413.512 212.253 413.512 223.726V228.842C413.512 235.664 412.305 240.78 409.891 244.191C407.478 247.292 403.255 248.842 397.221 248.842H370.07ZM383.35 320.476C368.494 320.476 356.477 308.254 356.814 293.402C357.139 279.018 368.961 267.528 383.348 267.528C397.97 267.528 409.891 279.381 409.891 294.002C409.891 308.623 397.971 320.476 383.35 320.476Z" fill="#545C73"/>
<path d="M49.7548 371.912C46.3581 371.912 43.8814 371.001 42.3246 369.179C40.9093 367.175 40.2017 364.169 40.2017 360.161V356.608C40.2017 345.13 42.1831 335.656 46.1459 328.186C50.2501 320.534 56.8312 313.065 65.8889 305.777C70.9839 301.951 74.6636 298.854 76.9281 296.485C79.334 294.117 81.0324 291.657 82.0231 289.107C83.0137 286.556 83.5091 283.277 83.5091 279.269C83.5091 272.528 81.5277 267.335 77.5649 263.691C73.7437 260.048 68.1534 258.226 60.7939 258.226C49.1887 258.226 38.7864 262.143 29.5871 269.977C25.7329 273.894 19.6056 274.662 15.0712 271.558L9.59734 267.81C3.73473 263.796 1.31443 256.777 5.75607 251.232C7.87921 248.581 10.7766 245.433 14.7268 241.823C28.3579 229.368 45.7213 225.705 65.2521 225.705C81.1031 225.705 93.9113 230.442 103.677 239.916C113.442 249.207 118.325 262.234 118.325 278.995C118.325 289.927 116.343 298.945 112.381 306.05C108.418 313.156 102.049 319.897 93.2745 326.273C86.3396 331.375 81.5985 336.112 79.051 340.484C76.5035 344.857 75.2297 350.414 75.2297 357.155V360.161C75.2297 364.169 74.5221 367.175 73.1068 369.179C71.6916 371.001 69.2148 371.912 65.6766 371.912H49.7548ZM57.542 414C48.8137 414 41.7837 406.82 41.981 398.094C42.172 389.642 49.0881 382.89 57.5418 382.89C66.1325 382.89 73.1068 389.855 73.1068 398.445C73.1068 407.036 66.1327 414 57.542 414Z" fill="#CE8D80"/>
<path d="M244.123 340.428L257.6 346.169C271.163 351.946 286.695 350.714 299.178 342.871L301.339 341.513C314.723 333.103 331.537 332.332 345.634 339.481L347.501 340.428" stroke="#CE8D80" stroke-width="11" stroke-linecap="round"/>
<path d="M46.0844 144.651L59.562 150.392C73.1247 156.169 88.657 154.937 101.139 147.094L103.301 145.735C116.684 137.326 133.498 136.555 147.595 143.703L149.463 144.651" stroke="#545C73" stroke-width="11" stroke-linecap="round"/>
<ellipse cx="181.847" cy="345.416" rx="9.9642" ry="9.97591" fill="#545C73"/>
<ellipse cx="261.56" cy="142.157" rx="9.9642" ry="9.9759" fill="#CE8D80"/>
</g>
</svg>
