<svg width="66" height="66" viewBox="0 0 66 66" fill="none" xmlns="http://www.w3.org/2000/svg">
<path d="M65.9945 33C65.9945 14.773 51.2215 0 32.9972 0C14.773 0 0 14.773 0 33C0 49.467 12.067 63.118 27.841 65.593V42.537H19.4645V32.9972H27.841V25.729C27.841 17.457 32.769 12.8892 40.304 12.8892C43.9147 12.8892 47.6905 13.5327 47.6905 13.5327V21.6535H43.5325C39.435 21.6535 38.1562 24.1972 38.1562 26.807V33H47.3082L45.8452 42.5397H38.1562V65.5957C53.9303 63.1207 65.9973 49.4697 65.9973 33H65.9945Z" fill="white"/>
</svg>
