<svg width="66" height="66" viewBox="0 0 66 66" fill="none" xmlns="http://www.w3.org/2000/svg">
<path d="M56.9397 30.0536C56.9397 26.5424 55.8655 23.2891 53.7171 20.2935C51.5686 17.298 48.6529 14.9286 44.9699 13.1853C41.2868 11.442 37.2723 10.5703 32.9263 10.5703C28.5804 10.5703 24.5658 11.442 20.8828 13.1853C17.1998 14.9286 14.284 17.298 12.1356 20.2935C9.98717 23.2891 8.91295 26.5424 8.91295 30.0536C8.91295 34.8661 10.8158 39.077 14.6217 42.6864C18.4275 46.2958 23.2277 48.481 29.0223 49.2422C30.1763 49.5123 30.8761 49.9174 31.1217 50.4576C31.2935 50.8996 31.3181 51.6239 31.1953 52.6306C31.0234 53.76 30.9129 54.4475 30.8638 54.6931C30.7656 55.5525 30.8761 56.0681 31.1953 56.24C31.5391 56.4118 32.1161 56.3259 32.9263 55.9821C34.7188 55.221 37.7573 53.3488 42.0419 50.3655C46.3265 47.3823 49.5859 44.6138 51.8203 42.0603C55.2333 38.279 56.9397 34.2768 56.9397 30.0536ZM48.9475 27.5123H44.3438V29.2433H48.9475C49.2667 29.2433 49.4263 29.4029 49.4263 29.7221V31.4163C49.4263 31.7355 49.2667 31.8951 48.9475 31.8951H44.3438V33.6261H48.9475C49.2667 33.6261 49.4263 33.7857 49.4263 34.1049V35.7991C49.4263 36.1183 49.2667 36.2779 48.9475 36.2779H42.2076C41.9129 36.2779 41.7656 36.1183 41.7656 35.7991V25.3393C41.7656 25.0201 41.9129 24.8605 42.2076 24.8605H48.9475C49.2667 24.8605 49.4263 25.0201 49.4263 25.3393V27.0335C49.4263 27.3527 49.2667 27.5123 48.9475 27.5123ZM23.9766 33.6261C24.2958 33.6261 24.4554 33.7857 24.4554 34.1049V35.7991C24.4554 36.1183 24.2958 36.2779 23.9766 36.2779H17.2734C16.9788 36.2779 16.8315 36.1183 16.8315 35.7991V25.3393C16.8315 25.0201 16.9788 24.8605 17.2734 24.8605H18.9676C19.2623 24.8605 19.4096 25.0201 19.4096 25.3393V33.6261H23.9766ZM39.6663 24.8605C39.9855 24.8605 40.1451 25.0201 40.1451 25.3393V35.7991C40.1451 36.1183 39.9855 36.2779 39.6663 36.2779H37.9721C37.8002 36.2779 37.6652 36.2042 37.567 36.0569L32.8158 29.5748V35.7991C32.8158 36.1183 32.6562 36.2779 32.3371 36.2779H30.6429C30.3237 36.2779 30.1641 36.1183 30.1641 35.7991V25.3393C30.1641 25.0201 30.3237 24.8605 30.6429 24.8605H32.3371C32.4353 24.8605 32.558 24.9342 32.7054 25.0815L37.4933 31.5636V25.3393C37.4933 25.0201 37.6529 24.8605 37.9721 24.8605H39.6663ZM28.0647 24.8605C28.3839 24.8605 28.5435 25.0201 28.5435 25.3393V35.7991C28.5435 36.1183 28.3839 36.2779 28.0647 36.2779H26.3705C26.0513 36.2779 25.8917 36.1183 25.8917 35.7991V25.3393C25.8917 25.0201 26.0513 24.8605 26.3705 24.8605H28.0647ZM12.375 0H53.625C57.0379 0 59.9537 1.20926 62.3722 3.62779C64.7907 6.04632 66 8.96205 66 12.375V53.625C66 57.0379 64.7907 59.9537 62.3722 62.3722C59.9537 64.7907 57.0379 66 53.625 66H12.375C8.96205 66 6.04632 64.7907 3.62779 62.3722C1.20926 59.9537 0 57.0379 0 53.625V12.375C0 8.96205 1.20926 6.04632 3.62779 3.62779C6.04632 1.20926 8.96205 0 12.375 0Z" fill="white"/>
</svg>
