<svg width="39" height="38" viewBox="0 0 39 38" fill="none" xmlns="http://www.w3.org/2000/svg">
<path d="M19.0014 33C17.1117 33 15.2768 32.6309 13.5512 31.9008C11.8831 31.1953 10.3872 30.1836 9.10196 28.8984C7.81668 27.6133 6.80486 26.1176 6.09933 24.4496C5.36918 22.7242 5 20.8895 5 19C5 18.4559 5.44028 18.0156 5.98447 18.0156C6.52867 18.0156 6.96894 18.4559 6.96894 19C6.96894 20.6242 7.28616 22.1992 7.91513 23.684C8.52222 25.1168 9.3891 26.4047 10.4939 27.5094C11.5987 28.6141 12.8867 29.4836 14.3197 30.0879C15.8018 30.7141 17.377 31.0312 19.0014 31.0312C20.6257 31.0312 22.2009 30.7141 23.6858 30.0852C25.1188 29.4781 26.4068 28.6113 27.5116 27.5066C28.6164 26.402 29.486 25.1141 30.0903 23.6812C30.7166 22.1992 31.0338 20.6242 31.0338 19C31.0338 17.3758 30.7166 15.8008 30.0876 14.316C29.4826 12.8866 28.6069 11.5877 27.5088 10.4906C26.4129 9.39118 25.1135 8.51541 23.6831 7.91211C22.2009 7.28594 20.6257 6.96875 19.0014 6.96875C18.4572 6.96875 18.0169 6.52852 18.0169 5.98438C18.0169 5.44023 18.4572 5 19.0014 5C20.891 5 22.726 5.36914 24.4515 6.09922C26.1196 6.80469 27.6155 7.81641 28.9008 9.10156C30.1861 10.3867 31.1951 11.8852 31.9007 13.5504C32.6308 15.2758 33 17.1105 33 19C33 20.8895 32.6308 22.7242 31.9007 24.4496C31.1979 26.1176 30.1861 27.6133 28.9008 28.8984C27.6155 30.1836 26.1169 31.1926 24.4515 31.898C22.726 32.6309 20.891 33 19.0014 33Z" fill="white"/>
</svg>
