<svg width="503" height="552" viewBox="0 0 503 552" fill="none" xmlns="http://www.w3.org/2000/svg">
<g clip-path="url(#clip0)">
<ellipse cx="73" cy="476.401" rx="172" ry="43.4909" fill="#F5E8E5"/>
<rect x="144" y="388.919" width="72" height="85.982" rx="9" fill="#3F3F3F"/>
<mask id="path-4-inside-1" fill="white">
<rect x="-132" width="367" height="405.915" rx="8"/>
</mask>
<rect x="-132" width="367" height="405.915" rx="8" fill="#545C73" stroke="#EAEAEA" stroke-width="32" mask="url(#path-4-inside-1)"/>
<g clip-path="url(#clip1)">
<rect width="94.3204" height="79.0909" rx="2" transform="matrix(-1 0 0 1 209.32 299.937)" fill="#E0C08D"/>
<path fill-rule="evenodd" clip-rule="evenodd" d="M209.32 301.937C209.32 300.833 208.425 299.937 207.32 299.937H117C115.895 299.937 115 300.833 115 301.937V377.028C115 378.133 115.895 379.028 117 379.028H207.32C208.425 379.028 209.32 378.133 209.32 377.028L209.32 301.937Z" fill="#40321C"/>
</g>
<g clip-path="url(#clip2)">
<rect width="94.3204" height="79.0909" rx="2" transform="matrix(-1 0 0 1 87.3204 299.937)" fill="#E0C08D"/>
<path fill-rule="evenodd" clip-rule="evenodd" d="M87.3204 301.937C87.3204 300.833 86.425 299.937 85.3204 299.937H-4.99996C-6.10453 299.937 -6.99997 300.833 -6.99997 301.937V377.028C-6.99997 378.133 -6.10454 379.028 -4.99997 379.028H85.3204C86.425 379.028 87.3204 378.133 87.3204 377.028L87.3204 301.937Z" fill="#40321C"/>
</g>
<g clip-path="url(#clip3)">
<rect width="94.3204" height="79.0909" rx="2" transform="matrix(-1 0 0 1 97.3204 299.937)" fill="#E0C08D"/>
<path fill-rule="evenodd" clip-rule="evenodd" d="M97.3204 301.937C97.3204 300.833 96.425 299.937 95.3204 299.937H5.00004C3.89547 299.937 3.00003 300.833 3.00003 301.937V377.028C3.00003 378.133 3.89546 379.028 5.00003 379.028H95.3204C96.425 379.028 97.3204 378.133 97.3204 377.028L97.3204 301.937Z" fill="#E0C08D"/>
</g>
<g clip-path="url(#clip4)">
<rect width="94.3204" height="79.0909" rx="2" transform="matrix(-1 0 0 1 87.3204 216.955)" fill="#40321C"/>
<path fill-rule="evenodd" clip-rule="evenodd" d="M87.3204 218.955C87.3204 217.85 86.425 216.955 85.3204 216.955H-4.99996C-6.10453 216.955 -6.99997 217.85 -6.99997 218.955V294.046C-6.99997 295.15 -6.10454 296.046 -4.99997 296.046H85.3204C86.425 296.046 87.3204 295.15 87.3204 294.046L87.3204 218.955Z" fill="#40321C"/>
</g>
<g clip-path="url(#clip5)">
<rect width="94.3204" height="79.0909" rx="2" transform="matrix(-1 0 0 1 174.32 216.955)" fill="#E0C08D"/>
<path fill-rule="evenodd" clip-rule="evenodd" d="M174.32 218.955C174.32 217.85 173.425 216.955 172.32 216.955H82C80.8955 216.955 80 217.85 80 218.955V294.046C80 295.15 80.8955 296.046 82 296.046H172.32C173.425 296.046 174.32 295.15 174.32 294.046L174.32 218.955Z" fill="#E0C08D"/>
</g>
<g clip-path="url(#clip6)">
<rect width="94.3204" height="79.0909" rx="2" transform="matrix(-1 0 0 1 59.3204 216.955)" fill="#E0C08D"/>
<path fill-rule="evenodd" clip-rule="evenodd" d="M59.3204 218.955C59.3204 217.85 58.425 216.955 57.3204 216.955H-33C-34.1045 216.955 -35 217.85 -35 218.955V294.046C-35 295.15 -34.1045 296.046 -33 296.046H57.3204C58.425 296.046 59.3204 295.15 59.3204 294.046L59.3204 218.955Z" fill="#E0C08D"/>
</g>
<g clip-path="url(#clip7)">
<rect width="94.3204" height="79.0909" rx="2" transform="matrix(-1 0 0 1 198.32 299.937)" fill="#E0C08D"/>
<path fill-rule="evenodd" clip-rule="evenodd" d="M199.32 301.937C199.32 300.833 198.425 299.937 197.32 299.937H107C105.895 299.937 105 300.833 105 301.937V377.028C105 378.133 105.895 379.028 107 379.028H197.32C198.425 379.028 199.32 378.133 199.32 377.028L199.32 301.937Z" fill="#E0C08D"/>
</g>
<path fill-rule="evenodd" clip-rule="evenodd" d="M127.32 135.972C127.32 134.867 126.425 133.972 125.32 133.972H35C33.8955 133.972 33 134.867 33 135.972V211.063C33 212.167 33.8955 213.063 35 213.063H125.32C126.425 213.063 127.32 212.167 127.32 211.063L127.32 135.972Z" fill="#E0C08D"/>
<g filter="url(#filter0_dd)">
<path fill-rule="evenodd" clip-rule="evenodd" d="M378.417 172.726C373.612 167.086 370.359 160.175 370.903 152.43C372.468 130.116 403.537 135.025 409.58 146.287C415.623 157.549 414.905 186.117 407.095 188.129C403.98 188.932 397.344 186.966 390.591 182.896L394.83 212.879H369.8L378.417 172.726Z" fill="#CAAA8D"/>
<path fill-rule="evenodd" clip-rule="evenodd" d="M398.541 147.92C395.145 149.82 392.727 153.379 389.818 158.048C389.109 157.77 388.337 157.617 387.53 157.617C384.074 157.617 381.272 160.418 381.272 163.873C381.272 165.627 381.994 167.212 383.157 168.348C381.709 170.392 380.087 172.526 378.227 174.728C371.289 170.566 365.375 158.18 372 146.469C378.747 130.717 400.786 139.428 407 135.472C407 135.472 413.945 149.247 398.541 147.92Z" fill="#191847"/>
<path fill-rule="evenodd" clip-rule="evenodd" d="M359.629 302.937L410.816 432.465L445.147 541.971H458.704L406.219 302.937L359.629 302.937Z" fill="#B98F69"/>
<path fill-rule="evenodd" clip-rule="evenodd" d="M358.485 303.399C357.94 348.916 349.991 410.198 348.721 413.035C347.875 414.926 318.646 438.981 261.036 485.198L270.374 495.188C338.348 455.562 373.908 433.107 377.053 427.822C381.772 419.895 397.133 346.944 409.466 303.399H358.485Z" fill="#CAAA8D"/>
<path fill-rule="evenodd" clip-rule="evenodd" d="M260.315 482.097C257.082 483.35 254.845 484.504 253.604 485.561C252.096 486.847 250.091 488.958 247.592 491.895C248.966 493.534 261.316 508.265 284.643 536.088C289.66 533.782 291.292 531.254 289.541 528.505C287.79 525.755 286.359 523.451 285.247 521.592L277.803 492.721C277.66 492.165 277.082 491.864 276.513 492.047C276.503 492.05 276.493 492.053 276.483 492.057L271.957 493.65C268.895 492.332 266.764 490.957 265.563 489.525C264.588 488.361 263.742 486.327 263.027 483.422L263.027 483.422C262.753 482.307 261.604 481.691 260.462 482.046C260.412 482.062 260.364 482.079 260.315 482.097Z" fill="#E4E4E4"/>
<path fill-rule="evenodd" clip-rule="evenodd" d="M439.596 536.916C438.429 540.03 437.846 542.36 437.846 543.906C437.846 545.786 438.159 548.53 438.786 552.137C440.967 552.137 460.574 552.137 497.607 552.137C499.135 547.085 498.253 544.357 494.96 543.954C491.666 543.551 488.931 543.188 486.752 542.863L459.413 530.677C458.887 530.443 458.27 530.679 458.036 531.205C458.032 531.214 458.028 531.223 458.024 531.232L456.267 535.494C453.218 536.916 450.74 537.628 448.834 537.628C447.286 537.628 445.147 537.002 442.418 535.752L442.418 535.752C441.371 535.272 440.133 535.731 439.653 536.778C439.632 536.823 439.613 536.869 439.596 536.916Z" fill="#E4E4E4"/>
<path fill-rule="evenodd" clip-rule="evenodd" d="M433.336 527.428L458.5 523.698L410.73 302.937H353L433.336 527.428Z" fill="#3E4455"/>
<path fill-rule="evenodd" clip-rule="evenodd" d="M274.369 469.081L291 485.899C345.5 449.406 371.608 442.742 379 427.911C386.392 413.08 401.102 368.921 407 303.399H354.5C351.278 361.042 346.622 403.733 345.5 406.415C344.378 409.098 318.975 421.634 274.369 469.081Z" fill="#545C73"/>
<path fill-rule="evenodd" clip-rule="evenodd" d="M325.003 250.948H346C327.955 309.021 321.056 339.516 319.944 342.255C317.44 348.418 322.738 357.805 325.003 362.849C317.624 366.129 318.411 353.982 309.102 358.284C300.606 362.21 294.143 369.325 284.327 363.308C283.12 362.568 281.797 359.783 284.993 357.607C292.954 352.184 304.425 342.694 305.976 339.571C308.089 335.311 314.443 305.77 325.003 250.948Z" fill="#CAAA8D"/>
<path fill-rule="evenodd" clip-rule="evenodd" d="M415.5 247.448L479.537 310.998C488.455 314.776 495.762 318.949 501.458 323.515C502.738 325.05 504.133 327.991 498.106 326.675C492.079 325.359 485.681 324.244 484.548 326.191C483.415 328.137 486.753 331.121 484.659 333.669C483.264 335.367 478.57 329.964 470.579 317.459L400.5 261.945L415.5 247.448Z" fill="#CAAA8D"/>
<path fill-rule="evenodd" clip-rule="evenodd" d="M385.205 197.154L394.561 195.56C409.3 247.312 429.001 243.951 434.001 257.448L413.001 277.444C403.824 274.39 385.206 258.432 385.205 197.154Z" fill="#DFD5C9"/>
<path fill-rule="evenodd" clip-rule="evenodd" d="M399.709 201.35C400.521 203.116 400.919 205.065 400.918 207.009C400.867 273.618 434.482 309.588 426.5 319.933C418.4 330.431 346 361.425 346 341.429C339.5 330.931 341.428 323.277 341.175 311.435L339.5 278.442H313.861C313.186 278.442 312.711 277.769 312.914 277.125C328.237 228.675 341.454 213.25 372.5 190.46L394.019 194.851C395.893 195.233 397.472 196.486 398.271 198.223L399.709 201.35Z" fill="#F2EEE9"/>
<path d="M399.5 148.469L370 150.968C368.766 144.799 370.977 138.445 375.775 134.375L376.746 133.551C381.644 129.396 388.172 127.708 394.471 128.967L399.422 129.957C402.663 130.605 405.493 132.561 407.245 135.363L409.5 138.971H427.921C428.423 138.971 428.754 139.493 428.541 139.947C426.365 144.569 421.797 147.595 416.692 147.795L399.5 148.469Z" fill="#CE8D80"/>
</g>
</g>
<defs>
<filter id="filter0_dd" x="226.592" y="107.559" width="296.982" height="465.578" filterUnits="userSpaceOnUse" color-interpolation-filters="sRGB">
<feFlood flood-opacity="0" result="BackgroundImageFix"/>
<feColorMatrix in="SourceAlpha" type="matrix" values="0 0 0 0 0 0 0 0 0 0 0 0 0 0 0 0 0 0 127 0"/>
<feOffset dx="9" dy="9"/>
<feGaussianBlur stdDeviation="6"/>
<feColorMatrix type="matrix" values="0 0 0 0 0.9 0 0 0 0 0.9 0 0 0 0 0.9 0 0 0 0.5 0"/>
<feBlend mode="normal" in2="BackgroundImageFix" result="effect1_dropShadow"/>
<feColorMatrix in="SourceAlpha" type="matrix" values="0 0 0 0 0 0 0 0 0 0 0 0 0 0 0 0 0 0 127 0"/>
<feOffset dx="-9" dy="-9"/>
<feGaussianBlur stdDeviation="6"/>
<feColorMatrix type="matrix" values="0 0 0 0 0.99 0 0 0 0 0.99 0 0 0 0 0.99 0 0 0 0.5 0"/>
<feBlend mode="normal" in2="effect1_dropShadow" result="effect2_dropShadow"/>
<feBlend mode="normal" in="SourceGraphic" in2="effect2_dropShadow" result="shape"/>
</filter>
<clipPath id="clip0">
<rect width="503" height="552" fill="white"/>
</clipPath>
<clipPath id="clip1">
<rect width="94.3204" height="79.0909" rx="2" transform="matrix(-1 0 0 1 209.32 299.937)" fill="white"/>
</clipPath>
<clipPath id="clip2">
<rect width="94.3204" height="79.0909" rx="2" transform="matrix(-1 0 0 1 87.3204 299.937)" fill="white"/>
</clipPath>
<clipPath id="clip3">
<rect width="94.3204" height="79.0909" rx="2" transform="matrix(-1 0 0 1 97.3204 299.937)" fill="white"/>
</clipPath>
<clipPath id="clip4">
<rect width="94.3204" height="79.0909" rx="2" transform="matrix(-1 0 0 1 87.3204 216.955)" fill="white"/>
</clipPath>
<clipPath id="clip5">
<rect width="94.3204" height="79.0909" rx="2" transform="matrix(-1 0 0 1 174.32 216.955)" fill="white"/>
</clipPath>
<clipPath id="clip6">
<rect width="94.3204" height="79.0909" rx="2" transform="matrix(-1 0 0 1 59.3204 216.955)" fill="white"/>
</clipPath>
<clipPath id="clip7">
<rect width="94.3204" height="79.0909" rx="2" transform="matrix(-1 0 0 1 198.32 299.937)" fill="white"/>
</clipPath>
</defs>
</svg>
