<svg width="344" height="451" viewBox="0 0 344 451" fill="none" xmlns="http://www.w3.org/2000/svg">
<ellipse cx="172" cy="407.391" rx="172" ry="43.4909" fill="#E7E7E9"/>
<g filter="url(#filter0_dd)">
<path fill-rule="evenodd" clip-rule="evenodd" d="M173.368 71.144C177.769 65.9788 180.748 59.6487 180.25 52.5557C178.816 32.1188 150.361 36.6147 144.826 46.9295C139.291 57.2443 139.949 83.4086 147.102 85.2522C149.955 85.9874 156.033 84.1864 162.218 80.459L158.335 107.92H181.26L173.368 71.144Z" fill="#CAAA8D"/>
<path fill-rule="evenodd" clip-rule="evenodd" d="M134.671 32.6302C135.145 30.9619 136.422 29.5335 138.143 29.1097C138.56 29.0069 138.991 28.9654 139.421 28.9827C139.575 28.9889 139.618 29.0333 139.69 28.9256C139.743 28.8458 139.744 28.6507 139.766 28.5569C139.835 28.2652 139.92 27.977 140.026 27.6964C140.386 26.7392 140.991 25.892 141.72 25.1784C143.085 23.8433 144.928 22.9219 146.843 22.7552C147.891 22.664 148.932 22.8343 149.923 23.1752C150.436 23.3517 150.934 23.5714 151.418 23.8144C151.564 23.8875 152.037 24.2457 152.184 24.2225C152.345 24.1969 152.67 23.7951 152.802 23.6943C154.427 22.4477 156.434 21.9576 158.458 21.9722C160.743 21.9894 162.943 22.1036 164.848 23.4961C165.252 23.7909 165.636 24.1137 166.002 24.4536C166.194 24.6325 166.381 24.8181 166.559 25.0115C166.666 25.1281 166.771 25.2474 166.871 25.3699C167.042 25.5778 167.015 25.6461 167.254 25.501C168.171 24.944 169.234 24.6835 170.304 24.815C170.94 24.8932 171.558 25.0839 172.145 25.335C172.345 25.4205 172.808 25.7615 173.021 25.7648C173.232 25.7681 173.689 25.452 173.906 25.3717C175.082 24.9376 176.35 24.8306 177.586 25.0312C178.861 25.2381 180.114 25.7468 181.194 26.4496C181.714 26.7877 182.167 27.1623 182.531 27.665C182.688 27.8821 182.831 28.1117 183.009 28.3129C183.113 28.4308 183.32 28.5517 183.376 28.7008C183.342 28.6115 184.77 28.0611 184.905 28.026C185.623 27.8385 186.354 27.8765 187.057 28.1078C188.379 28.5427 189.515 29.5181 190.45 30.5181C190.93 31.0317 191.35 31.5995 191.706 32.2043C191.877 32.4941 192.033 32.7921 192.176 33.0965C192.245 33.2439 192.291 33.4284 192.382 33.5612C192.5 33.7323 192.579 33.7356 192.792 33.8102C193.874 34.1892 194.86 34.8305 195.611 35.6972C196.371 36.574 196.864 37.6538 197.07 38.7909C197.082 38.8578 197.09 39.1354 197.129 39.1717C197.183 39.2216 197.4 39.1995 197.483 39.2092C197.768 39.2426 198.051 39.2923 198.33 39.3584C198.844 39.4802 199.345 39.6595 199.819 39.8939C201.667 40.8077 202.988 42.5209 203.634 44.4486C204.313 46.4717 204.301 48.7895 203.49 50.7748C203.359 51.0954 203.203 51.4067 203.02 51.7011C202.908 51.8819 202.871 51.8823 202.944 52.072C203.026 52.2829 203.174 52.488 203.271 52.6941C203.586 53.3668 203.806 54.0804 203.945 54.8091C204.174 56.0045 204.287 57.2608 204.062 58.4653C203.957 59.0246 203.775 59.5713 203.497 60.0695C203.355 60.3234 203.189 60.5643 203.002 60.7872C202.905 60.9029 202.801 61.0134 202.693 61.1192C202.632 61.1797 202.551 61.2326 202.498 61.3002C202.37 61.4649 202.343 61.3295 202.409 61.5713C202.502 61.9094 202.711 62.243 202.84 62.572C202.972 62.911 203.091 63.2547 203.201 63.6018C203.422 64.3045 203.609 65.0201 203.726 65.7479C203.951 67.1452 203.912 68.6341 203.25 69.9166C202.968 70.4652 202.562 70.9464 202.07 71.3207C201.83 71.5038 201.569 71.6617 201.295 71.7913C201.155 71.8581 200.975 71.8867 200.911 72.0226C200.842 72.1687 200.945 72.4589 200.968 72.6222C201.171 74.0435 201.273 75.5357 200.851 76.9285C200.462 78.2113 199.605 79.344 198.492 80.0939C196.334 81.5485 193.424 81.4665 191.157 80.302C190.565 79.9984 190.012 79.6214 189.519 79.1768C188.263 80.8676 185.678 80.8141 183.842 80.3324C181.554 79.7322 179.719 78.1419 178.661 76.0525C177.215 77.8125 174.18 77.2415 173.177 75.3322C172.932 74.8649 172.786 74.3499 172.715 73.8287C172.677 73.5546 172.701 73.2782 172.673 73.0063C172.637 72.6599 172.405 72.3232 172.272 71.9881C172.013 71.3358 171.852 70.6621 171.845 69.9586C171.842 69.5912 171.888 69.2333 171.923 68.8689C171.954 68.5409 171.863 68.2353 171.812 67.9115C172.398 68.0081 173.113 67.8499 173.666 67.6799C174.208 67.513 174.716 67.0734 175.099 66.672C175.988 65.7398 176.531 64.5178 176.902 63.3015C177.718 60.6321 177.384 57.4295 174.698 55.9644C173.447 55.282 169.699 55.2842 168.209 55.6215C166.642 55.9762 164.866 59.4325 164.779 59.7573C164.725 59.9584 164.752 60.2072 164.567 60.3412C164.161 60.6358 163.492 60.1246 163.192 59.8723C162.675 59.4368 162.307 58.8575 161.987 58.2702C161.292 56.9908 160.731 55.6188 160.335 54.2182C160.03 53.1384 159.834 52.0249 159.435 50.9726C159.038 49.9255 158.412 48.9896 157.438 48.3964C156.379 47.7512 155.165 47.4113 154.003 47.0058C152.85 46.6039 151.718 46.1127 150.824 45.26C150.628 45.0725 150.437 44.8732 150.279 44.6525C150.154 44.4782 150.031 44.1445 149.841 44.034C149.545 43.8621 149.114 44.3092 148.858 44.4715C147.597 45.2723 146.544 46.3893 145.696 47.6095C144.852 48.823 144.159 49.9907 143.597 51.3458C143.179 52.3508 142.919 53.6379 142.185 54.4615C141.857 54.8293 139.421 55.0518 138.631 54.7307C137.842 54.4096 136.958 53.5759 136.693 53.0535C136.422 52.5187 136.357 51.9312 136.473 51.3458C136.541 51.0014 136.68 50.6796 136.756 50.3413C136.821 50.0572 136.879 49.7886 137.017 49.5282C137.279 49.0349 137.727 48.6803 138.267 48.5321C137.705 48.0139 137.239 47.3939 136.917 46.7009C136.582 45.981 136.298 45.1054 136.218 44.3152C136.152 43.6734 136.253 43.0084 136.605 42.4568C136.973 41.8782 137.627 41.5007 138.192 41.1398C137.328 40.4646 136.59 39.6435 135.982 38.7344C134.801 36.9664 134.071 34.7379 134.671 32.6302Z" fill="#3E3943"/>
<path fill-rule="evenodd" clip-rule="evenodd" d="M188.891 187.205L142.965 308.703L110.774 398.254H92.4185L136.668 187.205L188.891 187.205Z" fill="#4B5266"/>
<path fill-rule="evenodd" clip-rule="evenodd" d="M200.242 187.205C200.741 228.893 200.38 285.021 201.543 287.619C202.319 289.352 226.438 309.091 273.902 346.836L264.441 362.92C208.091 326.589 178.475 306.003 175.594 301.163C171.273 293.902 149.563 227.088 138.267 187.205H200.242Z" fill="#545C73"/>
<path fill-rule="evenodd" clip-rule="evenodd" d="M290.547 358.029L274.168 345.495L261.414 360.731C260.624 372.375 256.985 385.385 250.497 399.76L253.501 402.285L276.579 374.716L282.972 364.021L284.474 365.284L290.547 358.029Z" fill="#E7DED4"/>
<path fill-rule="evenodd" clip-rule="evenodd" d="M112.477 415.444L111.522 395.389H91.4635C81.9522 402.074 69.5349 407.486 54.2117 411.624V415.444H90.5083L102.926 413.534V415.444H112.477Z" fill="#E7DED4"/>
<path fill-rule="evenodd" clip-rule="evenodd" d="M130.389 153.984L93.9323 142.633C85.3065 143.22 77.8003 142.84 71.4137 141.494C69.7704 140.785 67.464 138.997 72.7891 137.611C78.1142 136.224 83.653 134.526 83.7598 132.511C83.8665 130.495 79.9988 129.46 80.6239 126.575C81.0407 124.652 86.9718 127.074 98.4173 133.841L131.348 135.871L130.389 153.984Z" fill="#CAAA8D"/>
<path fill-rule="evenodd" clip-rule="evenodd" d="M149.778 126.659C139.066 131.44 123.817 135.714 104.228 133.05L104.37 149.066C119.6 154.644 138.228 156.421 150.925 150.155C160.932 145.217 160.483 130.58 149.778 126.659Z" fill="#B97F73"/>
<g clip-path="url(#clip0)">
<rect width="94.3204" height="79.0909" rx="2" transform="matrix(-1 0 0 1 135.374 81.29)" fill="#E0C08D"/>
<path fill-rule="evenodd" clip-rule="evenodd" d="M135.374 91.2901C135.374 85.7672 130.897 81.29 125.374 81.29H51.0539C45.531 81.29 41.0539 85.7672 41.0539 91.29V150.381C41.0539 155.904 45.531 160.381 51.0539 160.381H125.374C130.897 160.381 135.374 155.904 135.374 150.381L135.374 91.2901Z" fill="#E0C08D"/>
</g>
<path fill-rule="evenodd" clip-rule="evenodd" d="M81.6105 163.644L66.6255 156.086C64.2869 148.311 61.6824 144.449 58.8118 144.501C56.5719 143.553 60.7583 153.334 56.5503 152.621C52.3422 151.908 41.8789 144.684 40.176 146.285C37.6566 148.654 40.2201 155.566 43.0731 158.949C48.4055 165.271 52.7095 167.347 63.2566 169.891C68.7712 171.222 74.7828 174.066 81.2915 178.424L81.6105 163.644Z" fill="#CAAA8D"/>
<path fill-rule="evenodd" clip-rule="evenodd" d="M141.459 145.932C129.007 149.037 103.835 161.684 74.5224 151.255C67.2516 166.294 69.9585 171.028 66.1553 178.633C91.3012 191.765 116.097 184.33 133.853 184.717C131.34 189.719 123.196 219.305 123.196 219.305C132.052 238.133 196.953 222.617 214.39 226.049C225.309 190.595 204.196 176.186 204.179 153.5C204.16 128.656 184.208 90.416 181.272 90.416L154.501 90.416C153.024 109.389 147.561 125.274 141.459 145.932Z" fill="#CE8D80"/>
</g>
<defs>
<filter id="filter0_dd" x="18.1495" y="0.971924" width="293.397" height="435.472" filterUnits="userSpaceOnUse" color-interpolation-filters="sRGB">
<feFlood flood-opacity="0" result="BackgroundImageFix"/>
<feColorMatrix in="SourceAlpha" type="matrix" values="0 0 0 0 0 0 0 0 0 0 0 0 0 0 0 0 0 0 127 0"/>
<feOffset dx="9" dy="9"/>
<feGaussianBlur stdDeviation="6"/>
<feColorMatrix type="matrix" values="0 0 0 0 0.824516 0 0 0 0 0.834839 0 0 0 0 0.855484 0 0 0 1 0"/>
<feBlend mode="normal" in2="BackgroundImageFix" result="effect1_dropShadow"/>
<feColorMatrix in="SourceAlpha" type="matrix" values="0 0 0 0 0 0 0 0 0 0 0 0 0 0 0 0 0 0 127 0"/>
<feOffset dx="-9" dy="-9"/>
<feGaussianBlur stdDeviation="6"/>
<feColorMatrix type="matrix" values="0 0 0 0 1 0 0 0 0 1 0 0 0 0 1 0 0 0 0.5 0"/>
<feBlend mode="normal" in2="effect1_dropShadow" result="effect2_dropShadow"/>
<feBlend mode="normal" in="SourceGraphic" in2="effect2_dropShadow" result="shape"/>
</filter>
<clipPath id="clip0">
<rect width="94.3204" height="79.0909" rx="2" transform="matrix(-1 0 0 1 135.374 81.29)" fill="white"/>
</clipPath>
</defs>
</svg>
