<svg width="132" height="111" viewBox="0 0 132 111" fill="none" xmlns="http://www.w3.org/2000/svg">
<g filter="url(#filter0_dd)">
<g clip-path="url(#clip0)">
<path d="M52.8043 29.2964L89.1642 16.1688C89.5973 16.0126 90.0611 15.9638 90.5167 16.0266C90.9723 16.0894 91.4063 16.2619 91.7822 16.5296C92.1581 16.7973 92.4649 17.1524 92.6769 17.565C92.8888 17.9776 92.9996 18.4356 93 18.9005V60.0135C92.9996 60.4784 92.8888 60.9365 92.6769 61.349C92.4649 61.7616 92.1581 62.1167 91.7822 62.3844C91.4063 62.6522 90.9723 62.8247 90.5167 62.8875C90.0611 62.9503 89.5973 62.9015 89.1642 62.7453L67.5856 54.6332V67.6832C67.5856 71.1719 64.7574 74 61.2687 74C57.7801 74 54.9519 71.1719 54.9519 67.6832V50.3928L52.8043 49.6177H44.6197C41.4529 49.6177 39 46.9848 39 43.7828V35.2307C39 32.0286 41.4529 29.2964 44.6197 29.2964H52.8043Z" stroke="#CE8D80" stroke-width="5"/>
</g>
</g>
<defs>
<filter id="filter0_dd" x="0" y="-21" width="132" height="132" filterUnits="userSpaceOnUse" color-interpolation-filters="sRGB">
<feFlood flood-opacity="0" result="BackgroundImageFix"/>
<feColorMatrix in="SourceAlpha" type="matrix" values="0 0 0 0 0 0 0 0 0 0 0 0 0 0 0 0 0 0 127 0"/>
<feOffset dx="9" dy="9"/>
<feGaussianBlur stdDeviation="6"/>
<feColorMatrix type="matrix" values="0 0 0 0 0.9 0 0 0 0 0.9 0 0 0 0 0.9 0 0 0 0.5 0"/>
<feBlend mode="normal" in2="BackgroundImageFix" result="effect1_dropShadow"/>
<feColorMatrix in="SourceAlpha" type="matrix" values="0 0 0 0 0 0 0 0 0 0 0 0 0 0 0 0 0 0 127 0"/>
<feOffset dx="-9" dy="-9"/>
<feGaussianBlur stdDeviation="6"/>
<feColorMatrix type="matrix" values="0 0 0 0 0.99 0 0 0 0 0.99 0 0 0 0 0.99 0 0 0 0.5 0"/>
<feBlend mode="normal" in2="effect1_dropShadow" result="effect2_dropShadow"/>
<feBlend mode="normal" in="SourceGraphic" in2="effect2_dropShadow" result="shape"/>
</filter>
<clipPath id="clip0">
<rect x="21" width="90" height="90" fill="white"/>
</clipPath>
</defs>
</svg>
