<svg width="90" height="91" viewBox="0 0 90 91" fill="none" xmlns="http://www.w3.org/2000/svg">
<path d="M9.89017 24.4601C9.89017 22.251 11.681 20.4601 13.8902 20.4601H75.1411C77.3423 20.4601 79.1299 22.2387 79.141 24.4399L79.3479 65.396C79.3591 67.613 77.565 69.4162 75.3479 69.4162H13.8902C11.681 69.4162 9.89017 67.6253 9.89017 65.4162V24.4601ZM45.6182 34.1827C48.6019 34.1827 51.4634 35.3679 53.5731 37.4777C55.6829 39.5875 56.8682 42.449 56.8682 45.4327C56.8682 48.4164 55.6829 51.2778 53.5731 53.3876C51.4634 55.4974 48.6019 56.6827 45.6182 56.6827C42.6345 56.6827 39.773 55.4974 37.6632 53.3876C35.5535 51.2778 34.3682 48.4164 34.3682 45.4327C34.3682 42.449 35.5535 39.5875 37.6632 37.4777C39.773 35.3679 42.6345 34.1827 45.6182 34.1827ZM24.7253 27.3832C24.7253 29.3723 24.7253 30.8448 23.2418 32.8228C21.7583 34.8008 18.8024 35.2326 16.8132 35.2326V55.0755C18.8024 55.0755 21.7583 55.3901 23.2418 57.3682C24.7253 59.3462 24.7253 60.9985 24.7253 62.9876H64.2858C64.2858 60.9985 64.2858 59.1663 66.2638 57.3682C68.2418 55.57 70.2087 55.57 72.1979 55.57V45.4327V35.2953C70.2087 35.2953 67.6703 34.2293 66.2638 32.8228C64.8573 31.4163 64.2858 29.3723 64.2858 27.3832H24.7253Z" stroke="#545C73" stroke-width="4"/>
</svg>
