<svg width="58" height="53" viewBox="0 0 58 53" fill="none" xmlns="http://www.w3.org/2000/svg">
<path d="M51.3012 25.1571L37.9359 12.0976C37.1204 11.3008 35.7979 11.3008 34.9825 12.0976C34.1669 12.8946 34.1669 14.1865 34.9825 14.9834L44.7828 24.5595H9.08833C7.93507 24.5595 7 25.4731 7 26.6C7 27.7267 7.93507 28.6406 9.08833 28.6406H44.7828L34.9828 38.2166C34.1672 39.0136 34.1672 40.3055 34.9828 41.1024C35.3905 41.5006 35.9251 41.7001 36.4595 41.7001C36.994 41.7001 37.5284 41.5006 37.9362 41.1024L51.3012 28.0429C52.1168 27.246 52.1168 25.9541 51.3012 25.1571Z" fill="#CE8D80"/>
</svg>
