<svg width="132" height="111" viewBox="0 0 132 111" fill="none" xmlns="http://www.w3.org/2000/svg">
<g filter="url(#filter0_dd)">
<g clip-path="url(#clip0)">
<path d="M76.4334 49.8084L75.1125 51.4875C78.7875 47.2125 81 41.6625 81 35.625C81 22.1625 70.0875 11.25 56.625 11.25C43.1625 11.25 32.25 22.1625 32.25 35.625C32.25 49.0875 43.1625 60 56.625 60C62.6625 60 68.2125 57.7875 72.4875 54.1125L70.8084 55.4334L89.4538 74.0462C90.9985 75.5882 93.5004 75.5871 95.0437 74.0437C96.5871 72.5004 96.5882 69.9985 95.0462 68.4538L76.4334 49.8084ZM56.625 52.5C47.2875 52.5 39.75 44.9625 39.75 35.625C39.75 26.2875 47.2875 18.75 56.625 18.75C65.9625 18.75 73.5 26.2875 73.5 35.625C73.5 44.9625 65.9625 52.5 56.625 52.5Z" fill="#545C73"/>
</g>
</g>
<defs>
<filter id="filter0_dd" x="0" y="-21" width="132" height="132" filterUnits="userSpaceOnUse" color-interpolation-filters="sRGB">
<feFlood flood-opacity="0" result="BackgroundImageFix"/>
<feColorMatrix in="SourceAlpha" type="matrix" values="0 0 0 0 0 0 0 0 0 0 0 0 0 0 0 0 0 0 127 0"/>
<feOffset dx="9" dy="9"/>
<feGaussianBlur stdDeviation="6"/>
<feColorMatrix type="matrix" values="0 0 0 0 0.9 0 0 0 0 0.9 0 0 0 0 0.9 0 0 0 0.5 0"/>
<feBlend mode="normal" in2="BackgroundImageFix" result="effect1_dropShadow"/>
<feColorMatrix in="SourceAlpha" type="matrix" values="0 0 0 0 0 0 0 0 0 0 0 0 0 0 0 0 0 0 127 0"/>
<feOffset dx="-9" dy="-9"/>
<feGaussianBlur stdDeviation="6"/>
<feColorMatrix type="matrix" values="0 0 0 0 0.99 0 0 0 0 0.99 0 0 0 0 0.99 0 0 0 0.5 0"/>
<feBlend mode="normal" in2="effect1_dropShadow" result="effect2_dropShadow"/>
<feBlend mode="normal" in="SourceGraphic" in2="effect2_dropShadow" result="shape"/>
</filter>
<clipPath id="clip0">
<rect x="21" width="90" height="90" fill="white"/>
</clipPath>
</defs>
</svg>
