<svg fill="none" height="111" viewBox="0 0 178 111" width="178" xmlns="http://www.w3.org/2000/svg" xmlns:xlink="http://www.w3.org/1999/xlink"><filter id="a" color-interpolation-filters="sRGB" filterUnits="userSpaceOnUse" height="132" width="190.5" x="-6.25" y="-21"><feFlood flood-opacity="0" result="BackgroundImageFix"/><feColorMatrix in="SourceAlpha" type="matrix" values="0 0 0 0 0 0 0 0 0 0 0 0 0 0 0 0 0 0 127 0"/><feOffset dx="9" dy="9"/><feGaussianBlur stdDeviation="6"/><feColorMatrix type="matrix" values="0 0 0 0 0.9 0 0 0 0 0.9 0 0 0 0 0.9 0 0 0 0.5 0"/><feBlend in2="BackgroundImageFix" mode="normal" result="effect1_dropShadow"/><feColorMatrix in="SourceAlpha" type="matrix" values="0 0 0 0 0 0 0 0 0 0 0 0 0 0 0 0 0 0 127 0"/><feOffset dx="-9" dy="-9"/><feGaussianBlur stdDeviation="6"/><feColorMatrix type="matrix" values="0 0 0 0 0.99 0 0 0 0 0.99 0 0 0 0 0.99 0 0 0 0.5 0"/><feBlend in2="effect1_dropShadow" mode="normal" result="effect2_dropShadow"/><feBlend in="SourceGraphic" in2="effect2_dropShadow" mode="normal" result="shape"/></filter><clipPath id="b"><path d="m14.75 0h148.5v90h-148.5z"/></clipPath><g filter="url(#a)"><g clip-path="url(#b)" stroke="#545c73" stroke-width="4"><rect height="24" rx="3" width="76" x="42.5" y="17"/><path d="m42.5 53c0-1.6569 1.3431-3 3-3h70c1.657 0 3 1.3431 3 3v5c0 1.6569-1.343 3-3 3h-70c-1.6569 0-3-1.3431-3-3z"/><path d="m107.393 34.4864c-.39.098-.757.2728-1.081.5145-.323.2416-.596.5453-.803.8937s-.345.7347-.404 1.1367-.039.8119.058 1.2062l6.728 27.1879c.197.7943.698 1.4771 1.392 1.8992.695.4221 1.526.5491 2.313.3532.742-.1865 1.402-.6516 1.833-1.3222l2.804-4.3859 5.564 7.3898c.363.4795.856.8416 1.42 1.0419.563.2004 1.172.2302 1.752.0859.407-.1021.794-.2902 1.134-.5541l3.182-2.4861c.321-.2504.589-.5627.789-.9189.201-.3562.329-.7491.377-1.1558.049-.4067.017-.8191-.094-1.2132-.11-.3941-.297-.762-.55-1.0824l-5.727-7.2756 5.143-1.8047c.558-.1945 1.049-.5482 1.412-1.0185.364-.4703.585-1.0369.637-1.6315.051-.5945-.068-1.1914-.345-1.7186s-.699-.962-1.215-1.2519l-24.09-13.5892c-.678-.3825-1.475-.4899-2.229-.3004z" fill="#f3f4f6"/></g></g></svg>