<svg width="178" height="112" viewBox="0 0 178 112" fill="none" xmlns="http://www.w3.org/2000/svg">
<g filter="url(#filter0_dd)">
<g clip-path="url(#clip0)">
<rect x="42.5" y="17.5" width="76" height="24" rx="3" stroke="#545C73" stroke-width="4"/>
<path d="M45.5 50.5H115.5C117.157 50.5 118.5 51.8431 118.5 53.5V58.5C118.5 60.1569 117.157 61.5 115.5 61.5H45.5C43.8431 61.5 42.5 60.1569 42.5 58.5V53.5C42.5 51.8431 43.8431 50.5 45.5 50.5Z" stroke="#545C73" stroke-width="4"/>
<path d="M107.393 34.9864C107.003 35.0844 106.636 35.2592 106.312 35.5009C105.989 35.7425 105.716 36.0462 105.509 36.3946C105.302 36.743 105.164 37.1293 105.105 37.5313C105.046 37.9333 105.066 38.3432 105.163 38.7375L111.891 65.9254C112.088 66.7197 112.589 67.4025 113.283 67.8246C113.978 68.2467 114.809 68.3737 115.596 68.1778C116.338 67.9913 116.998 67.5262 117.429 66.8556L120.233 62.4697L125.797 69.8595C126.16 70.339 126.653 70.7011 127.217 70.9014C127.78 71.1018 128.389 71.1316 128.969 70.9873C129.376 70.8852 129.763 70.6971 130.103 70.4332L133.285 67.9471C133.606 67.6967 133.874 67.3844 134.074 67.0282C134.275 66.672 134.403 66.2791 134.451 65.8724C134.5 65.4657 134.468 65.0533 134.357 64.6592C134.247 64.2651 134.06 63.8972 133.807 63.5768L128.08 56.3012L133.223 54.4965C133.781 54.302 134.272 53.9483 134.635 53.478C134.999 53.0077 135.22 52.4411 135.272 51.8465C135.323 51.252 135.204 50.6551 134.927 50.1279C134.65 49.6007 134.228 49.1659 133.712 48.876L109.622 35.2868C108.944 34.9043 108.147 34.7969 107.393 34.9864Z" fill="white"/>
<path d="M107.393 34.9864C107.003 35.0844 106.636 35.2592 106.312 35.5009C105.989 35.7425 105.716 36.0462 105.509 36.3946C105.302 36.743 105.164 37.1293 105.105 37.5313C105.046 37.9333 105.066 38.3432 105.163 38.7375L111.891 65.9254C112.088 66.7197 112.589 67.4025 113.283 67.8246C113.978 68.2467 114.809 68.3737 115.596 68.1778C116.338 67.9913 116.998 67.5262 117.429 66.8556L120.233 62.4697L125.797 69.8595C126.16 70.339 126.653 70.7011 127.217 70.9014C127.78 71.1018 128.389 71.1316 128.969 70.9873C129.376 70.8852 129.763 70.6971 130.103 70.4332L133.285 67.9471C133.606 67.6967 133.874 67.3844 134.074 67.0282C134.275 66.672 134.403 66.2791 134.451 65.8724C134.5 65.4657 134.468 65.0533 134.357 64.6592C134.247 64.2651 134.06 63.8972 133.807 63.5768L128.08 56.3012L133.223 54.4965C133.781 54.302 134.272 53.9483 134.635 53.478C134.999 53.0077 135.22 52.4411 135.272 51.8465C135.323 51.252 135.204 50.6551 134.927 50.1279C134.65 49.6007 134.228 49.1659 133.712 48.876L109.622 35.2868C108.944 34.9043 108.147 34.7969 107.393 34.9864Z" fill="#545C73" fill-opacity="0.1"/>
<path d="M107.393 34.9864C107.003 35.0844 106.636 35.2592 106.312 35.5009C105.989 35.7425 105.716 36.0462 105.509 36.3946C105.302 36.743 105.164 37.1293 105.105 37.5313C105.046 37.9333 105.066 38.3432 105.163 38.7375L111.891 65.9254C112.088 66.7197 112.589 67.4025 113.283 67.8246C113.978 68.2467 114.809 68.3737 115.596 68.1778C116.338 67.9913 116.998 67.5262 117.429 66.8556L120.233 62.4697L125.797 69.8595C126.16 70.339 126.653 70.7011 127.217 70.9014C127.78 71.1018 128.389 71.1316 128.969 70.9873C129.376 70.8852 129.763 70.6971 130.103 70.4332L133.285 67.9471C133.606 67.6967 133.874 67.3844 134.074 67.0282C134.275 66.672 134.403 66.2791 134.451 65.8724C134.5 65.4657 134.468 65.0533 134.357 64.6592C134.247 64.2651 134.06 63.8972 133.807 63.5768L128.08 56.3012L133.223 54.4965C133.781 54.302 134.272 53.9483 134.635 53.478C134.999 53.0077 135.22 52.4411 135.272 51.8465C135.323 51.252 135.204 50.6551 134.927 50.1279C134.65 49.6007 134.228 49.1659 133.712 48.876L109.622 35.2868C108.944 34.9043 108.147 34.7969 107.393 34.9864Z" stroke="#545C73" stroke-width="4"/>
</g>
</g>
<defs>
<filter id="filter0_dd" x="-6.25" y="-20.5" width="190.5" height="132" filterUnits="userSpaceOnUse" color-interpolation-filters="sRGB">
<feFlood flood-opacity="0" result="BackgroundImageFix"/>
<feColorMatrix in="SourceAlpha" type="matrix" values="0 0 0 0 0 0 0 0 0 0 0 0 0 0 0 0 0 0 127 0"/>
<feOffset dx="9" dy="9"/>
<feGaussianBlur stdDeviation="6"/>
<feColorMatrix type="matrix" values="0 0 0 0 0.9 0 0 0 0 0.9 0 0 0 0 0.9 0 0 0 0.5 0"/>
<feBlend mode="normal" in2="BackgroundImageFix" result="effect1_dropShadow"/>
<feColorMatrix in="SourceAlpha" type="matrix" values="0 0 0 0 0 0 0 0 0 0 0 0 0 0 0 0 0 0 127 0"/>
<feOffset dx="-9" dy="-9"/>
<feGaussianBlur stdDeviation="6"/>
<feColorMatrix type="matrix" values="0 0 0 0 0.99 0 0 0 0 0.99 0 0 0 0 0.99 0 0 0 0.5 0"/>
<feBlend mode="normal" in2="effect1_dropShadow" result="effect2_dropShadow"/>
<feBlend mode="normal" in="SourceGraphic" in2="effect2_dropShadow" result="shape"/>
</filter>
<clipPath id="clip0">
<rect x="14.75" y="0.5" width="148.5" height="90" fill="white"/>
</clipPath>
</defs>
</svg>
