<svg width="132" height="111" viewBox="0 0 132 111" fill="none" xmlns="http://www.w3.org/2000/svg">
<g filter="url(#filter0_dd)">
<g clip-path="url(#clip0)">
<path d="M65.9625 7.5C45.2625 7.5 28.5 24.3 28.5 45C28.5 65.7 45.2625 82.5 65.9625 82.5C86.7 82.5 103.5 65.7 103.5 45C103.5 24.3 86.7 7.5 65.9625 7.5ZM66 75C49.425 75 36 61.575 36 45C36 28.425 49.425 15 66 15C82.575 15 96 28.425 96 45C96 61.575 82.575 75 66 75Z" fill="#CE8D80"/>
<path d="M67.875 29.0625C67.875 27.5092 66.6158 26.25 65.0625 26.25C63.5092 26.25 62.25 27.5092 62.25 29.0625V48.75L79.6435 59.1861C80.9131 59.9479 82.5594 59.5425 83.3302 58.2784C84.1116 56.997 83.6954 55.3242 82.4047 54.5584L67.875 45.9375V29.0625Z" fill="#CE8D80"/>
</g>
</g>
<defs>
<filter id="filter0_dd" x="0" y="-21" width="132" height="132" filterUnits="userSpaceOnUse" color-interpolation-filters="sRGB">
<feFlood flood-opacity="0" result="BackgroundImageFix"/>
<feColorMatrix in="SourceAlpha" type="matrix" values="0 0 0 0 0 0 0 0 0 0 0 0 0 0 0 0 0 0 127 0"/>
<feOffset dx="9" dy="9"/>
<feGaussianBlur stdDeviation="6"/>
<feColorMatrix type="matrix" values="0 0 0 0 0.9 0 0 0 0 0.9 0 0 0 0 0.9 0 0 0 0.5 0"/>
<feBlend mode="normal" in2="BackgroundImageFix" result="effect1_dropShadow"/>
<feColorMatrix in="SourceAlpha" type="matrix" values="0 0 0 0 0 0 0 0 0 0 0 0 0 0 0 0 0 0 127 0"/>
<feOffset dx="-9" dy="-9"/>
<feGaussianBlur stdDeviation="6"/>
<feColorMatrix type="matrix" values="0 0 0 0 0.99 0 0 0 0 0.99 0 0 0 0 0.99 0 0 0 0.5 0"/>
<feBlend mode="normal" in2="effect1_dropShadow" result="effect2_dropShadow"/>
<feBlend mode="normal" in="SourceGraphic" in2="effect2_dropShadow" result="shape"/>
</filter>
<clipPath id="clip0">
<rect x="21" width="90" height="90" fill="white"/>
</clipPath>
</defs>
</svg>
