<svg width="200" height="100" viewBox="0 0 200 100" fill="none" xmlns="http://www.w3.org/2000/svg">
<g filter="url(#filter0_d)">
<path d="M88.0475 88.869C88.7267 89.4207 89.8353 89.7169 90.2679 90.4195C90.7348 91.6835 96.1984 92.8979 97.2962 91.0655C97.6293 90.5095 98.6905 90.2232 98.7153 89.4576C98.7466 88.4871 98.2742 88.2744 97.6301 87.577C96.9473 86.8376 96.5766 86.1364 95.5934 85.6103C94.781 85.1756 93.9515 84.7549 93.1643 84.2896C92.3964 83.8356 91.5378 83.5406 90.9106 82.9114C90.4171 82.4163 90.1345 81.5064 89.7754 80.9232C87.9897 78.0227 86.5487 75.9979 84.4737 73.2222C83.5897 72.0398 81.136 72.3839 81.136 70.5225C81.136 69.097 81.346 67.7747 81.7704 66.388C82.0001 65.6374 83.2881 63.1893 83.6902 62.4976C83.9843 61.9771 85.7368 58.4996 85.9474 57.5139C85.9474 57.5139 86.1254 55.093 86.0942 54.3436C86.0586 53.4857 85.7417 52.4371 87.0709 52.1831C88.2997 51.9482 89.8385 52.7899 89.9924 53.8483C90.1246 54.7575 90.4735 55.8389 91.5032 56.2816C93.8007 57.2694 96.1151 58.3573 98.2812 59.5547C99.2076 60.0668 100.19 61.1175 101.353 61.2128C102.395 61.2982 102.466 60.7299 103.064 60.2581C103.429 59.9705 103.261 58.9043 103.214 58.4996C103.118 57.6678 102.667 56.9036 102.388 56.1165C101.756 54.331 100.6 52.9604 100.827 51.0059C100.95 49.948 101.993 49.3009 102.739 48.5367C103.324 47.9369 104.069 47.3329 105.026 47.2662C105.616 47.2251 106.351 46.893 106.912 46.7207C107.534 46.5299 108.013 46.5035 108.665 46.491C109.605 46.4731 110.515 46.1401 111.453 46.1034C112.301 46.0703 113.047 46.0833 113.891 46.1034C114.818 46.1256 115.599 46.218 116.52 46.0962C117.975 45.9037 118.999 43.7357 118.999 42.6222C118.999 41.5858 119.05 40.1172 118.398 39.2271C117.86 38.4921 117.657 37.6374 117.079 36.9301C116.398 36.096 116.133 34.9218 115.694 33.9872C115.496 33.5669 115.225 33.1991 115.009 32.7957C114.79 32.3847 114.819 32.0222 114.525 31.6042C113.982 30.8327 113.53 30.1601 113.256 29.2786C113.013 28.4945 111.927 27.7817 111.219 27.2975C110.517 26.8171 109.885 26.1736 109.083 25.8188C107.497 25.1177 106.335 25.1145 104.65 25.4958C103.631 25.7266 103.144 26.4854 102.163 26.7807C101.172 27.0788 100.416 26.5551 99.5416 26.2782C98.748 26.0268 98.0583 25.7081 97.2211 25.948C96.7236 26.0906 95.782 26.5319 95.4431 26.8524C95.1023 27.1749 93.7098 28.5489 93.1226 28.3741C92.4521 28.1746 92.3557 26.773 92.4381 26.3213C92.7492 24.6162 93.3062 22.9006 93.3062 21.1676C93.3062 20.1603 93.0133 19.6014 92.4966 18.7128C92.1127 18.0526 91.4884 17.8861 90.9774 17.349C90.5471 16.8968 90.1117 16.4825 89.6251 16.0641C89.1435 15.65 88.3051 15.4385 87.9056 15.0377C86.3889 13.5161 84.1729 13.9357 82.2211 14.607C80.2763 15.276 78.8289 16.786 76.929 17.5212C76.203 17.8021 75.4651 17.7601 74.7921 18.1385C74.188 18.4782 73.8049 19.0811 73.3897 19.5885C72.9607 20.1127 72.3904 20.4683 71.9707 21.0097C71.6093 21.4759 71.5198 22.0465 71.2946 22.5888C70.6789 24.0711 71.2194 25.3157 71.2194 26.7878C71.2194 28.3868 72.9001 29.7389 73.8488 30.9941C74.3081 31.6017 74.6864 32.4414 75.2011 32.9823C75.5827 33.3834 76.0008 33.8599 76.2445 34.3389C76.8396 35.5087 76.6793 36.4533 76.6285 37.6766C76.5366 39.8884 73.7298 41.9483 74.7503 44.23C75.2392 45.3231 75.7372 46.1229 76.787 46.9504C77.7997 47.7486 78.4852 48.855 79.2495 49.8216C79.8172 50.5395 80.0064 51.7851 80.2011 52.664C80.2011 52.664 80.5153 56.2367 80.2011 58.4996C79.9813 60.082 79.5518 62.1684 79.2495 62.4976C78.6681 63.1309 78.3731 64.1413 77.9223 64.8304C77.5679 65.3722 77.3566 65.9549 76.7787 66.3808C76.0432 66.9229 75.7006 67.1855 75.2428 67.9097C74.6816 68.7977 74.5758 69.7097 74.2244 70.6517C73.8711 71.5988 73.6531 72.7562 73.6234 73.7525C73.5973 74.6289 73.7737 75.4707 73.7737 76.3365C73.7737 77.7483 74.6471 79.4689 75.4765 80.6576C75.6229 80.8673 75.8211 81.146 76.0274 81.3108C77.0867 82.1566 78.3648 82.8569 79.4164 83.701C80.4325 84.5164 81.4071 85.4858 82.5633 86.1486C83.3792 86.6163 84.1274 87.6721 85.1259 87.8283C86.1774 87.9926 87.2321 88.2069 88.0475 88.869Z" fill="#F2EEE9"/>
<path d="M112.874 12.4445C109.263 12.4445 106.326 15.4676 106.326 19.1852C106.326 22.9206 109.257 25.9259 112.874 25.9259C116.556 25.9259 119.422 22.864 119.422 19.1852C119.422 15.4676 116.486 12.4445 112.874 12.4445Z" fill="white"/>
<path d="M113 7C106.409 7 101.047 12.5195 101.047 19.3047C101.047 21.5968 101.664 23.8338 102.83 25.7745L112.319 41.5148C112.713 42.169 113.64 42.159 114.021 41.5008L123.268 25.6082C124.369 23.7087 124.953 21.5287 124.953 19.3047C124.953 12.5195 119.591 7 113 7ZM113 25.4707C109.657 25.4707 107.01 22.6694 107.01 19.3047C107.01 15.9121 109.704 13.1387 113 13.1387C116.296 13.1387 118.99 15.9121 118.99 19.3047C118.99 22.6397 116.379 25.4707 113 25.4707Z" fill="#CE8D80"/>
<path d="M96.4444 45.3333C94.8512 45.3333 93.5555 46.6289 93.5555 48.2221C93.5555 49.823 94.8488 51.111 96.4444 51.111C98.0686 51.111 99.3333 49.7988 99.3333 48.2221C99.3333 46.6289 98.0377 45.3333 96.4444 45.3333Z" fill="white"/>
<path d="M96.5 43C93.5921 43 91.2266 45.3655 91.2266 48.2734C91.2266 49.2558 91.4986 50.2145 92.0132 51.0462L96.1996 57.7921C96.3732 58.0724 96.7825 58.0681 96.9506 57.7861L101.03 50.975C101.516 50.1609 101.773 49.2266 101.773 48.2734C101.773 45.3655 99.408 43 96.5 43ZM96.5 50.916C95.025 50.916 93.8574 49.7155 93.8574 48.2734C93.8574 46.8195 95.046 45.6309 96.5 45.6309C97.954 45.6309 99.1426 46.8195 99.1426 48.2734C99.1426 49.7027 97.9907 50.916 96.5 50.916Z" fill="#6474A1"/>
<path d="M83.4667 35.4C82.5107 35.4 81.7333 36.1774 81.7333 37.1334C81.7333 38.0939 82.5093 38.8667 83.4667 38.8667C84.4412 38.8667 85.2 38.0793 85.2 37.1334C85.2 36.1774 84.4226 35.4 83.4667 35.4Z" fill="white"/>
<path d="M83.5 34C81.7552 34 80.3359 35.4193 80.3359 37.1641C80.3359 37.7535 80.4992 38.3287 80.8079 38.8277L83.3198 42.8752C83.4239 43.0435 83.6695 43.0409 83.7704 42.8716L86.2181 38.785C86.5096 38.2965 86.6641 37.7359 86.6641 37.1641C86.6641 35.4193 85.2448 34 83.5 34ZM83.5 38.7496C82.615 38.7496 81.9145 38.0293 81.9145 37.1641C81.9145 36.2917 82.6276 35.5785 83.5 35.5785C84.3724 35.5785 85.0855 36.2917 85.0855 37.1641C85.0855 38.0216 84.3944 38.7496 83.5 38.7496Z" fill="#6474A1"/>
<path d="M82.9704 17.2444C82.1206 17.2444 81.4296 17.9354 81.4296 18.7852C81.4296 19.639 82.1194 20.3259 82.9704 20.3259C83.8366 20.3259 84.5111 19.626 84.5111 18.7852C84.5111 17.9354 83.8201 17.2444 82.9704 17.2444Z" fill="white"/>
<path d="M83 16C81.4491 16 80.1875 17.2616 80.1875 18.8125C80.1875 19.3364 80.3326 19.8477 80.607 20.2913L82.8398 23.8891C82.9324 24.0386 83.1507 24.0363 83.2403 23.8859L85.4161 20.2533C85.6752 19.8191 85.8125 19.3208 85.8125 18.8125C85.8125 17.2616 84.5509 16 83 16ZM83 20.2219C82.2134 20.2219 81.5906 19.5816 81.5906 18.8125C81.5906 18.037 82.2245 17.4031 83 17.4031C83.7755 17.4031 84.4094 18.037 84.4094 18.8125C84.4094 19.5748 83.795 20.2219 83 20.2219Z" fill="#6474A1"/>
<path d="M84.4667 75.4C83.5107 75.4 82.7333 76.1774 82.7333 77.1334C82.7333 78.0939 83.5093 78.8667 84.4667 78.8667C85.4412 78.8667 86.2 78.0793 86.2 77.1334C86.2 76.1774 85.4226 75.4 84.4667 75.4Z" fill="white"/>
<path d="M84.5 74C82.7552 74 81.3359 75.4193 81.3359 77.1641C81.3359 77.7535 81.4992 78.3287 81.8079 78.8277L84.3198 82.8752C84.4239 83.0435 84.6695 83.0409 84.7704 82.8716L87.2181 78.785C87.5096 78.2965 87.6641 77.7359 87.6641 77.1641C87.6641 75.4193 86.2448 74 84.5 74ZM84.5 78.7496C83.615 78.7496 82.9145 78.0293 82.9145 77.1641C82.9145 76.2917 83.6276 75.5785 84.5 75.5785C85.3724 75.5785 86.0855 76.2917 86.0855 77.1641C86.0855 78.0216 85.3944 78.7496 84.5 78.7496Z" fill="#6474A1"/>
</g>
<defs>
<filter id="filter0_d" x="-1" y="-5" width="212" height="112" filterUnits="userSpaceOnUse" color-interpolation-filters="sRGB">
<feFlood flood-opacity="0" result="BackgroundImageFix"/>
<feColorMatrix in="SourceAlpha" type="matrix" values="0 0 0 0 0 0 0 0 0 0 0 0 0 0 0 0 0 0 127 0"/>
<feOffset dx="5" dy="1"/>
<feGaussianBlur stdDeviation="3"/>
<feColorMatrix type="matrix" values="0 0 0 0 0.9 0 0 0 0 0.9 0 0 0 0 0.9 0 0 0 0.5 0"/>
<feBlend mode="normal" in2="BackgroundImageFix" result="effect1_dropShadow"/>
<feBlend mode="normal" in="SourceGraphic" in2="effect1_dropShadow" result="shape"/>
</filter>
</defs>
</svg>
