<svg width="114" height="139" viewBox="0 0 114 139" fill="none" xmlns="http://www.w3.org/2000/svg">
<g filter="url(#filter0_dd)">
<path d="M48.536 113.986C49.3942 114.693 50.7946 115.073 51.341 115.974C51.9309 117.594 58.8331 119.151 60.22 116.802C60.6407 116.089 61.9814 115.722 62.0126 114.741C62.0522 113.496 61.4554 113.224 60.6418 112.33C59.7791 111.382 59.3109 110.483 58.0688 109.808C57.0425 109.251 55.9946 108.711 55.0002 108.115C54.03 107.533 52.9453 107.155 52.153 106.348C51.5296 105.713 51.1725 104.547 50.7189 103.799C48.463 100.08 46.6427 97.4845 44.0213 93.9259C42.9046 92.41 39.8047 92.8512 39.8047 90.4647C39.8047 88.6371 40.0701 86.9419 40.6062 85.1641C40.8964 84.2018 42.5235 81.0632 43.0315 80.1765C43.403 79.5091 45.617 75.0507 45.883 73.787C45.883 73.787 46.1078 70.6833 46.0685 69.7226C46.0235 68.6227 45.6232 67.2783 47.3023 66.9526C48.8547 66.6516 50.7987 67.7307 50.993 69.0876C51.16 70.2532 51.6008 71.6396 52.9017 72.2072C55.8041 73.4736 58.7279 74.8683 61.4643 76.4035C62.6346 77.06 63.8751 78.4071 65.3449 78.5292C66.6616 78.6387 66.7505 77.9102 67.5066 77.3053C67.9676 76.9365 67.7559 75.5696 67.6964 75.0507C67.5742 73.9843 67.0044 73.0046 66.6525 71.9955C65.8541 69.7065 64.3934 67.9492 64.6805 65.4435C64.8359 64.0872 66.1538 63.2575 67.0954 62.2778C67.8344 61.5088 68.7761 60.7345 69.9847 60.649C70.7299 60.5963 71.6592 60.1705 72.3679 59.9496C73.153 59.7049 73.758 59.6712 74.5823 59.6552C75.7696 59.6321 76.9191 59.2053 78.1044 59.1582C79.1749 59.1158 80.1177 59.1324 81.1835 59.1582C82.3551 59.1866 83.3422 59.3052 84.5052 59.149C86.3438 58.9022 87.6371 56.1227 87.6371 54.6951C87.6371 53.3664 87.7013 51.4836 86.8779 50.3424C86.198 49.4001 85.9419 48.3043 85.2118 47.3976C84.3506 46.3282 84.0163 44.8229 83.4613 43.6246C83.2117 43.0858 82.8689 42.6143 82.5966 42.097C82.3192 41.5701 82.3563 41.1053 81.985 40.5695C81.2997 39.5804 80.7275 38.7181 80.3821 37.5879C80.075 36.5827 78.7034 35.6688 77.8091 35.048C76.9219 34.4322 76.123 33.6072 75.1096 33.1523C73.1068 32.2535 71.6392 32.2493 69.5102 32.7382C68.2221 33.034 67.6072 34.0069 66.3677 34.3855C65.1165 34.7677 64.1608 34.0963 63.0566 33.7413C62.0539 33.4189 61.1827 33.0103 60.1251 33.318C59.4965 33.5008 58.307 34.0666 57.879 34.4775C57.4483 34.8909 55.6892 36.6525 54.9474 36.4284C54.1004 36.1725 53.9787 34.3756 54.0828 33.7965C54.4757 31.6105 55.1794 29.411 55.1794 27.1892C55.1794 25.8978 54.8093 25.1812 54.1566 24.042C53.6717 23.1957 52.8829 22.9821 52.2374 22.2936C51.6938 21.7138 51.1438 21.1828 50.5291 20.6463C49.9207 20.1154 48.8615 19.8443 48.3568 19.3304C46.4407 17.3796 43.6413 17.9175 41.1756 18.7782C38.7187 19.6359 36.8903 21.5718 34.49 22.5144C33.573 22.8745 32.6407 22.8207 31.7905 23.3058C31.0274 23.7412 30.5434 24.5142 30.0189 25.1647C29.477 25.8368 28.7565 26.2927 28.2263 26.9868C27.7697 27.5844 27.6567 28.316 27.3721 29.0113C26.5944 30.9117 27.2772 32.5074 27.2772 34.3947C27.2772 36.4446 29.4004 38.1781 30.5989 39.7873C31.1791 40.5663 31.657 41.6428 32.3072 42.3363C32.7893 42.8505 33.3174 43.4614 33.6253 44.0756C34.3772 45.5752 34.1746 46.7863 34.1104 48.3547C33.9944 51.1902 30.4485 53.8312 31.7378 56.7564C32.3554 58.1578 32.9845 59.1831 34.3108 60.2441C35.5901 61.2675 36.456 62.6859 37.4216 63.9251C38.1387 64.8455 38.3778 66.4425 38.6237 67.5692C38.6237 67.5692 39.0207 72.1496 38.6237 75.0507C38.3461 77.0795 37.8034 79.7543 37.4216 80.1765C36.6871 80.9883 36.3144 82.2837 35.7449 83.1672C35.2972 83.8618 35.0303 84.6089 34.3002 85.1549C33.3711 85.8499 32.9382 86.1865 32.3599 87.115C31.651 88.2534 31.5173 89.4226 31.0734 90.6303C30.6271 91.8446 30.3517 93.3285 30.3142 94.6058C30.2812 95.7294 30.504 96.8086 30.504 97.9186C30.504 99.7286 31.6074 101.934 32.6552 103.458C32.8401 103.727 33.0905 104.085 33.3512 104.296C34.6894 105.38 36.3039 106.278 37.6325 107.36C38.916 108.406 40.1472 109.648 41.6079 110.498C42.6386 111.098 43.5838 112.451 44.8453 112.652C46.1736 112.862 47.506 113.137 48.536 113.986Z" fill="#F2EEE9"/>
<g clip-path="url(#clip0)">
<path d="M71.3105 28.9338C68.316 28.9338 65.881 31.4608 65.881 34.5682C65.881 37.6905 68.3117 40.2026 71.3105 40.2026C74.363 40.2026 76.74 37.6431 76.74 34.5682C76.74 31.4608 74.3049 28.9338 71.3105 28.9338Z" fill="white"/>
<path d="M71.4149 24.383C65.9496 24.383 61.5038 28.9965 61.5038 34.6681C61.5038 36.5839 62.0152 38.4538 62.9823 40.076L70.8503 53.2328C71.1766 53.7796 71.9458 53.7712 72.2618 53.2211L79.929 39.937C80.842 38.3492 81.326 36.527 81.326 34.6681C81.326 28.9965 76.8802 24.383 71.4149 24.383ZM71.4149 39.822C68.6428 39.822 66.4483 37.4805 66.4483 34.6681C66.4483 31.8323 68.6822 29.5141 71.4149 29.5141C74.1475 29.5141 76.3814 31.8323 76.3814 34.6681C76.3814 37.4557 74.2165 39.822 71.4149 39.822Z" fill="#CE8D80"/>
</g>
<g clip-path="url(#clip1)">
<path d="M57.0079 57.2198C55.7084 57.2198 54.6517 58.3225 54.6517 59.6785C54.6517 61.0409 55.7065 62.1371 57.0079 62.1371C58.3325 62.1371 59.364 61.0203 59.364 59.6785C59.364 58.3225 58.3073 57.2198 57.0079 57.2198Z" fill="white"/>
<path d="M57.0532 55.2341C54.6814 55.2341 52.7521 57.2473 52.7521 59.7221C52.7521 60.5581 52.974 61.3741 53.3937 62.0819L56.8082 67.8231C56.9498 68.0617 57.2836 68.058 57.4207 67.818L60.748 62.0213C61.1442 61.3284 61.3542 60.5333 61.3542 59.7221C61.3542 57.2473 59.4249 55.2341 57.0532 55.2341ZM57.0532 61.9711C55.8502 61.9711 54.8979 60.9494 54.8979 59.7221C54.8979 58.4847 55.8673 57.4731 57.0532 57.4731C58.239 57.4731 59.2085 58.4847 59.2085 59.7221C59.2085 60.9385 58.2689 61.9711 57.0532 61.9711Z" fill="#6474A1"/>
</g>
<g clip-path="url(#clip2)">
<path d="M38.9228 44.4539C37.6233 44.4539 36.5666 45.5565 36.5666 46.9125C36.5666 48.2749 37.6214 49.3711 38.9228 49.3711C40.2475 49.3711 41.279 48.2543 41.279 46.9125C41.279 45.5565 40.2223 44.4539 38.9228 44.4539Z" fill="white"/>
<path d="M38.9681 42.4681C36.5964 42.4681 34.6671 44.4813 34.6671 46.9561C34.6671 47.7921 34.889 48.6081 35.3086 49.3159L38.7231 55.0571C38.8647 55.2957 39.1985 55.292 39.3356 55.052L42.6629 49.2553C43.0591 48.5624 43.2691 47.7673 43.2691 46.9561C43.2691 44.4813 41.3398 42.4681 38.9681 42.4681ZM38.9681 49.2051C37.7651 49.2051 36.8128 48.1834 36.8128 46.9561C36.8128 45.7187 37.7822 44.7071 38.9681 44.7071C40.1539 44.7071 41.1234 45.7187 41.1234 46.9561C41.1234 48.1725 40.1839 49.2051 38.9681 49.2051Z" fill="#6474A1"/>
</g>
<g clip-path="url(#clip3)">
<path d="M41.5824 23.7092C40.2829 23.7092 39.2262 24.8118 39.2262 26.1678C39.2262 27.5302 40.281 28.6264 41.5824 28.6264C42.907 28.6264 43.9385 27.5096 43.9385 26.1678C43.9385 24.8118 42.8818 23.7092 41.5824 23.7092Z" fill="white"/>
<path d="M41.6277 21.7234C39.2559 21.7234 37.3266 23.7366 37.3266 26.2114C37.3266 27.0474 37.5485 27.8634 37.9682 28.5712L41.3827 34.3124C41.5242 34.551 41.8581 34.5473 41.9952 34.3073L45.3225 28.5106C45.7187 27.8177 45.9287 27.0226 45.9287 26.2114C45.9287 23.7366 43.9994 21.7234 41.6277 21.7234ZM41.6277 28.4604C40.4247 28.4604 39.4724 27.4387 39.4724 26.2114C39.4724 24.974 40.4418 23.9624 41.6277 23.9624C42.8135 23.9624 43.783 24.974 43.783 26.2114C43.783 27.4279 42.8434 28.4604 41.6277 28.4604Z" fill="#6474A1"/>
</g>
<g clip-path="url(#clip4)">
<path d="M37.327 90.7305C36.0275 90.7305 34.9708 91.8331 34.9708 93.1891C34.9708 94.5515 36.0257 95.6477 37.327 95.6477C38.6517 95.6477 39.6832 94.5309 39.6832 93.1891C39.6832 91.8331 38.6265 90.7305 37.327 90.7305Z" fill="white"/>
<path d="M37.3723 88.7447C35.0006 88.7447 33.0713 90.7579 33.0713 93.2327C33.0713 94.0687 33.2932 94.8847 33.7129 95.5925L37.1273 101.334C37.2689 101.572 37.6027 101.569 37.7399 101.329L41.0671 95.5319C41.4633 94.839 41.6734 94.0439 41.6734 93.2327C41.6734 90.7579 39.7441 88.7447 37.3723 88.7447ZM37.3723 95.4817C36.1693 95.4817 35.217 94.46 35.217 93.2327C35.217 91.9953 36.1865 90.9837 37.3723 90.9837C38.5582 90.9837 39.5276 91.9953 39.5276 93.2327C39.5276 94.4492 38.5881 95.4817 37.3723 95.4817Z" fill="#6474A1"/>
</g>
</g>
<defs>
<filter id="filter0_dd" x="-21" y="-3" width="156" height="142" filterUnits="userSpaceOnUse" color-interpolation-filters="sRGB">
<feFlood flood-opacity="0" result="BackgroundImageFix"/>
<feColorMatrix in="SourceAlpha" type="matrix" values="0 0 0 0 0 0 0 0 0 0 0 0 0 0 0 0 0 0 127 0"/>
<feOffset dx="9" dy="9"/>
<feGaussianBlur stdDeviation="6"/>
<feColorMatrix type="matrix" values="0 0 0 0 0.9 0 0 0 0 0.9 0 0 0 0 0.9 0 0 0 0.5 0"/>
<feBlend mode="normal" in2="BackgroundImageFix" result="effect1_dropShadow"/>
<feColorMatrix in="SourceAlpha" type="matrix" values="0 0 0 0 0 0 0 0 0 0 0 0 0 0 0 0 0 0 127 0"/>
<feOffset dx="-9" dy="-9"/>
<feGaussianBlur stdDeviation="6"/>
<feColorMatrix type="matrix" values="0 0 0 0 0.99 0 0 0 0 0.99 0 0 0 0 0.99 0 0 0 0.5 0"/>
<feBlend mode="normal" in2="effect1_dropShadow" result="effect2_dropShadow"/>
<feBlend mode="normal" in="SourceGraphic" in2="effect2_dropShadow" result="shape"/>
</filter>
<clipPath id="clip0">
<rect x="57.3192" y="24.383" width="28.1915" height="29.2553" fill="white"/>
</clipPath>
<clipPath id="clip1">
<rect x="50.9362" y="55.2341" width="12.234" height="12.766" fill="white"/>
</clipPath>
<clipPath id="clip2">
<rect x="32.8511" y="42.4681" width="12.234" height="12.766" fill="white"/>
</clipPath>
<clipPath id="clip3">
<rect x="35.5107" y="21.7234" width="12.234" height="12.766" fill="white"/>
</clipPath>
<clipPath id="clip4">
<rect x="31.2553" y="88.7447" width="12.234" height="12.766" fill="white"/>
</clipPath>
</defs>
</svg>
