<svg fill="none" height="139" viewBox="0 0 156 139" width="156" xmlns="http://www.w3.org/2000/svg" xmlns:xlink="http://www.w3.org/1999/xlink"><filter id="a" color-interpolation-filters="sRGB" filterUnits="userSpaceOnUse" height="142" width="156" x="0" y="-3"><feFlood flood-opacity="0" result="BackgroundImageFix"/><feColorMatrix in="SourceAlpha" type="matrix" values="0 0 0 0 0 0 0 0 0 0 0 0 0 0 0 0 0 0 127 0"/><feOffset dx="9" dy="9"/><feGaussianBlur stdDeviation="6"/><feColorMatrix type="matrix" values="0 0 0 0 0.9 0 0 0 0 0.9 0 0 0 0 0.9 0 0 0 0.5 0"/><feBlend in2="BackgroundImageFix" mode="normal" result="effect1_dropShadow"/><feColorMatrix in="SourceAlpha" type="matrix" values="0 0 0 0 0 0 0 0 0 0 0 0 0 0 0 0 0 0 127 0"/><feOffset dx="-9" dy="-9"/><feGaussianBlur stdDeviation="6"/><feColorMatrix type="matrix" values="0 0 0 0 0.99 0 0 0 0 0.99 0 0 0 0 0.99 0 0 0 0.5 0"/><feBlend in2="effect1_dropShadow" mode="normal" result="effect2_dropShadow"/><feBlend in="SourceGraphic" in2="effect2_dropShadow" mode="normal" result="shape"/></filter><clipPath id="b"><path d="m21 18h114v100h-114z"/></clipPath><clipPath id="c"><path d="m78.3192 24.383h28.1915v29.2553h-28.1915z"/></clipPath><clipPath id="d"><path d="m71.9362 55.2341h12.234v12.766h-12.234z"/></clipPath><clipPath id="e"><path d="m53.8511 42.4681h12.234v12.766h-12.234z"/></clipPath><clipPath id="f"><path d="m56.5107 21.7234h12.234v12.766h-12.234z"/></clipPath><clipPath id="g"><path d="m52.2553 88.7447h12.234v12.766h-12.234z"/></clipPath><g filter="url(#a)"><g clip-path="url(#b)"><path d="m69.536 113.986c.8582.707 2.2586 1.087 2.805 1.988.5899 1.62 7.4921 3.177 8.879.828.4207-.713 1.7614-1.08 1.7926-2.061.0396-1.245-.5572-1.517-1.3708-2.411-.8627-.948-1.3309-1.847-2.573-2.522-1.0263-.557-2.0742-1.097-3.0686-1.693-.9702-.582-2.0549-.96-2.8472-1.767-.6234-.635-.9805-1.801-1.4341-2.549-2.2559-3.719-4.0762-6.3145-6.6976-9.8731-1.1167-1.5159-4.2166-1.0747-4.2166-3.4612 0-1.8276.2654-3.5228.8015-5.3006.2902-.9623 1.9173-4.1009 2.4253-4.9876.3715-.6674 2.5855-5.1258 2.8515-6.3895 0 0 .2248-3.1037.1855-4.0644-.045-1.0999-.4453-2.4443 1.2338-2.77 1.5524-.301 3.4964.7781 3.6907 2.135.167 1.1656.6078 2.552 1.9087 3.1196 2.9024 1.2664 5.8262 2.6611 8.5626 4.1963 1.1703.6565 2.4108 2.0036 3.8806 2.1257 1.3167.1095 1.4056-.619 2.1617-1.2239.461-.3688.2493-1.7357.1898-2.2546-.1222-1.0664-.692-2.0461-1.0439-3.0552-.7984-2.289-2.2591-4.0463-1.972-6.552.1554-1.3563 1.4733-2.186 2.4149-3.1657.739-.769 1.6807-1.5433 2.8893-1.6288.7452-.0527 1.6745-.4785 2.3832-.6994.7851-.2447 1.3901-.2784 2.2144-.2944 1.1873-.0231 2.3368-.4499 3.5221-.497 1.0706-.0424 2.0136-.0258 3.0796 0 1.171.0284 2.158.147 3.321-.0092 1.839-.2468 3.132-3.0263 3.132-4.4539 0-1.3287.064-3.2115-.759-4.3527-.68-.9423-.936-2.0381-1.666-2.9448-.861-1.0694-1.196-2.5747-1.751-3.773-.249-.5388-.592-1.0103-.864-1.5276-.278-.5269-.241-.9917-.612-1.5275-.685-.9891-1.257-1.8514-1.603-2.9816-.307-1.0052-1.6786-1.9191-2.5729-2.5399-.8872-.6158-1.6861-1.4408-2.6995-1.8957-2.0028-.8988-3.4704-.903-5.5994-.4141-1.2881.2958-1.903 1.2687-3.1425 1.6473-1.2512.3822-2.2069-.2892-3.3111-.6442-1.0027-.3224-1.8739-.731-2.9315-.4233-.6286.1828-1.8181.7486-2.2461 1.1595-.4307.4134-2.1898 2.175-2.9316 1.9509-.847-.2559-.9687-2.0528-.8646-2.6319.3929-2.186 1.0966-4.3855 1.0966-6.6073 0-1.2914-.3701-2.008-1.0228-3.1472-.4849-.8463-1.2737-1.0599-1.9192-1.7484-.5436-.5798-1.0936-1.1108-1.7083-1.6473-.6084-.5309-1.6676-.802-2.1723-1.3159-1.9161-1.9508-4.7155-1.4129-7.1812-.5522-2.4569.8577-4.2853 2.7936-6.6856 3.7362-.917.3601-1.8493.3063-2.6995.7914-.7631.4354-1.2471 1.2084-1.7716 1.8589-.5419.6721-1.2624 1.128-1.7926 1.8221-.4566.5976-.5696 1.3292-.8542 2.0245-.7777 1.9004-.0949 3.4961-.0949 5.3834 0 2.0499 2.1232 3.7834 3.3217 5.3926.5802.779 1.0581 1.8555 1.7083 2.549.4821.5142 1.0102 1.1251 1.3181 1.7393.7519 1.4996.5493 2.7107.4851 4.2791-.116 2.8355-3.6619 5.4765-2.3726 8.4017.6176 1.4014 1.2467 2.4267 2.573 3.4877 1.2793 1.0234 2.1452 2.4418 3.1108 3.681.7171.9204.9562 2.5174 1.2021 3.6441 0 0 .397 4.5804 0 7.4815-.2776 2.0288-.8203 4.7036-1.2021 5.1258-.7345.8118-1.1072 2.1072-1.6767 2.9907-.4477.6946-.7146 1.4417-1.4447 1.9877-.9291.695-1.362 1.0316-1.9403 1.9601-.7089 1.1384-.8426 2.3076-1.2865 3.5153-.4463 1.2143-.7217 2.6982-.7592 3.9755-.033 1.1236.1898 2.2028.1898 3.3128 0 1.81 1.1034 4.0154 2.1512 5.5394.1849.269.4353.627.696.838 1.3382 1.084 2.9527 1.982 4.2813 3.064 1.2835 1.046 2.5147 2.288 3.9754 3.138 1.0307.6 1.9759 1.953 3.2374 2.154 1.3283.21 2.6607.485 3.6907 1.334z" fill="#f2eee9"/><g clip-path="url(#c)"><path d="m92.3105 28.9338c-2.9945 0-5.4295 2.527-5.4295 5.6344 0 3.1223 2.4307 5.6344 5.4295 5.6344 3.0525 0 5.4295-2.5595 5.4295-5.6344 0-3.1074-2.4351-5.6344-5.4295-5.6344z" fill="#fff"/><path d="m92.4149 24.383c-5.4653 0-9.9111 4.6135-9.9111 10.2851 0 1.9158.5114 3.7857 1.4785 5.4079l7.868 13.1568c.3263.5468 1.0955.5384 1.4115-.0117l7.6672-13.2841c.913-1.5878 1.397-3.41 1.397-5.2689 0-5.6716-4.4458-10.2851-9.9111-10.2851zm0 15.439c-2.7721 0-4.9666-2.3415-4.9666-5.1539 0-2.8358 2.2339-5.154 4.9666-5.154 2.7326 0 4.9665 2.3182 4.9665 5.154 0 2.7876-2.1649 5.1539-4.9665 5.1539z" fill="#ce8d80"/></g><g clip-path="url(#d)"><path d="m78.0079 57.2198c-1.2995 0-2.3562 1.1027-2.3562 2.4587 0 1.3624 1.0548 2.4586 2.3562 2.4586 1.3246 0 2.3561-1.1168 2.3561-2.4586 0-1.356-1.0567-2.4587-2.3561-2.4587z" fill="#fff"/><path d="m78.0532 55.2341c-2.3718 0-4.3011 2.0132-4.3011 4.488 0 .836.2219 1.652.6416 2.3598l3.4145 5.7412c.1416.2386.4754.2349.6125-.0051l3.3273-5.7967c.3962-.6929.6062-1.488.6062-2.2992 0-2.4748-1.9293-4.488-4.301-4.488zm0 6.737c-1.203 0-2.1553-1.0217-2.1553-2.249 0-1.2374.9694-2.249 2.1553-2.249 1.1858 0 2.1553 1.0116 2.1553 2.249 0 1.2164-.9396 2.249-2.1553 2.249z" fill="#6474a1"/></g><g clip-path="url(#e)"><path d="m59.9228 44.4539c-1.2995 0-2.3562 1.1026-2.3562 2.4586 0 1.3624 1.0548 2.4586 2.3562 2.4586 1.3247 0 2.3562-1.1168 2.3562-2.4586 0-1.356-1.0567-2.4586-2.3562-2.4586z" fill="#fff"/><path d="m59.9681 42.4681c-2.3717 0-4.301 2.0132-4.301 4.488 0 .836.2219 1.652.6415 2.3598l3.4145 5.7412c.1416.2386.4754.2349.6125-.0051l3.3273-5.7967c.3962-.6929.6062-1.488.6062-2.2992 0-2.4748-1.9293-4.488-4.301-4.488zm0 6.737c-1.203 0-2.1553-1.0217-2.1553-2.249 0-1.2374.9694-2.249 2.1553-2.249 1.1858 0 2.1553 1.0116 2.1553 2.249 0 1.2164-.9395 2.249-2.1553 2.249z" fill="#6474a1"/></g><g clip-path="url(#f)"><path d="m62.5824 23.7092c-1.2995 0-2.3562 1.1026-2.3562 2.4586 0 1.3624 1.0548 2.4586 2.3562 2.4586 1.3246 0 2.3561-1.1168 2.3561-2.4586 0-1.356-1.0567-2.4586-2.3561-2.4586z" fill="#fff"/><path d="m62.6277 21.7234c-2.3718 0-4.3011 2.0132-4.3011 4.488 0 .836.2219 1.652.6416 2.3598l3.4145 5.7412c.1415.2386.4754.2349.6125-.0051l3.3273-5.7967c.3962-.6929.6062-1.488.6062-2.2992 0-2.4748-1.9293-4.488-4.301-4.488zm0 6.737c-1.203 0-2.1553-1.0217-2.1553-2.249 0-1.2374.9694-2.249 2.1553-2.249 1.1858 0 2.1553 1.0116 2.1553 2.249 0 1.2165-.9396 2.249-2.1553 2.249z" fill="#6474a1"/></g><g clip-path="url(#g)"><path d="m58.327 90.7305c-1.2995 0-2.3562 1.1026-2.3562 2.4586 0 1.3624 1.0549 2.4586 2.3562 2.4586 1.3247 0 2.3562-1.1168 2.3562-2.4586 0-1.356-1.0567-2.4586-2.3562-2.4586z" fill="#fff"/><path d="m58.3723 88.7447c-2.3717 0-4.301 2.0132-4.301 4.488 0 .836.2219 1.652.6416 2.3598l3.4144 5.7415c.1416.238.4754.235.6126-.005l3.3272-5.7971c.3962-.6929.6063-1.488.6063-2.2992 0-2.4748-1.9293-4.488-4.3011-4.488zm0 6.737c-1.203 0-2.1553-1.0217-2.1553-2.249 0-1.2374.9695-2.249 2.1553-2.249 1.1859 0 2.1553 1.0116 2.1553 2.249 0 1.2165-.9395 2.249-2.1553 2.249z" fill="#6474a1"/></g></g></g></svg>