<svg fill="none" height="139" viewBox="0 0 192 139" width="192" xmlns="http://www.w3.org/2000/svg" xmlns:xlink="http://www.w3.org/1999/xlink"><filter id="a" color-interpolation-filters="sRGB" filterUnits="userSpaceOnUse" height="142" width="192" x="0" y="-3"><feFlood flood-opacity="0" result="BackgroundImageFix"/><feColorMatrix in="SourceAlpha" type="matrix" values="0 0 0 0 0 0 0 0 0 0 0 0 0 0 0 0 0 0 127 0"/><feOffset dx="9" dy="9"/><feGaussianBlur stdDeviation="6"/><feColorMatrix type="matrix" values="0 0 0 0 0.9 0 0 0 0 0.9 0 0 0 0 0.9 0 0 0 0.5 0"/><feBlend in2="BackgroundImageFix" mode="normal" result="effect1_dropShadow"/><feColorMatrix in="SourceAlpha" type="matrix" values="0 0 0 0 0 0 0 0 0 0 0 0 0 0 0 0 0 0 127 0"/><feOffset dx="-9" dy="-9"/><feGaussianBlur stdDeviation="6"/><feColorMatrix type="matrix" values="0 0 0 0 0.99 0 0 0 0 0.99 0 0 0 0 0.99 0 0 0 0.5 0"/><feBlend in2="effect1_dropShadow" mode="normal" result="effect2_dropShadow"/><feBlend in="SourceGraphic" in2="effect2_dropShadow" mode="normal" result="shape"/></filter><clipPath id="b"><path d="m21 18h150v100h-150z"/></clipPath><clipPath id="c"><path d="m131 18h40v58h-40z"/></clipPath><clipPath id="d"><path d="m21 93.4902h23.5294v24.5098h-23.5294z"/></clipPath><clipPath id="e"><path d="m51.3922 30.7451h36.2745v37.2549h-36.2745z"/></clipPath><g filter="url(#a)"><g clip-path="url(#b)"><g stroke-linecap="round" stroke-linejoin="round"><path d="m53.3529 115.059 56.8631-3.432 33.333-25.4897" stroke="#545c73" stroke-width="6"/><path d="m133.745 69.9639c-9.077-6.015-14.341-7.9925-24.51-8.2508-9.729.4255-15.8182 1.8357-26.4703 5.3387" stroke="#e5e5e5" stroke-dasharray="10 10" stroke-width="4"/><path d="m60.2157 75.7558c-7.8325 7.4607-9.742 12.7118-10.2941 23.2964" stroke="#e5e5e5" stroke-dasharray="10 10" stroke-width="4"/></g><g clip-path="url(#c)"><path d="m150.596 27.0082c-5.915 0-10.724 5.0019-10.724 11.153 0 6.1804 4.801 11.153 10.724 11.153 6.029 0 10.724-5.0663 10.724-11.153 0-6.1511-4.81-11.153-10.724-11.153z" fill="#fff"/><path d="m150.802 18c-10.795 0-19.576 9.1323-19.576 20.3589 0 3.7924 1.01 7.4938 2.92 10.7047l15.541 26.0435c.644 1.0823 2.164 1.0657 2.788-.0232l15.144-26.2954c1.803-3.1429 2.759-6.7498 2.759-10.4296 0-11.2266-8.781-20.3589-19.576-20.3589zm0 30.561c-5.475 0-9.81-4.635-9.81-10.2021 0-5.6133 4.413-10.2021 9.81-10.2021s9.81 4.5888 9.81 10.2021c0 5.5181-4.276 10.2021-9.81 10.2021z" fill="#ce8d80"/></g><g clip-path="url(#d)"><path d="m32.6776 97.3029c-2.4993 0-4.5316 2.117-4.5316 4.7201 0 2.616 2.0287 4.721 4.5316 4.721 2.5477 0 4.5315-2.145 4.5315-4.721 0-2.6031-2.0323-4.7201-4.5315-4.7201z" fill="#fff"/><path d="m32.7647 93.4902c-4.5615 0-8.2721 3.8651-8.2721 8.6168 0 1.605.4268 3.172 1.234 4.531l6.5669 11.022c.2723.458.9143.451 1.1781-.01l6.3993-11.129c.762-1.33 1.1659-2.857 1.1659-4.414 0-4.7517-3.7106-8.6168-8.2721-8.6168zm0 12.9348c-2.3136 0-4.1452-1.962-4.1452-4.318 0-2.3759 1.8645-4.318 4.1452-4.318s4.1452 1.9421 4.1452 4.318c0 2.335-1.8069 4.318-4.1452 4.318z" fill="#6474a1"/></g><g clip-path="url(#e)"><path d="m69.395 36.5404c-3.853 0-6.9862 3.2179-6.9862 7.175 0 3.9761 3.1277 7.175 6.9862 7.175 3.9278 0 6.9863-3.2592 6.9863-7.175 0-3.9571-3.1332-7.175-6.9863-7.175z" fill="#fff"/><path d="m69.5294 30.7451c-7.0323 0-12.7528 5.8751-12.7528 13.0974 0 2.4398.658 4.821 1.9024 6.8867l10.124 16.7544c.4198.6963 1.4095.6857 1.8162-.0149l9.8655-16.9165c1.1748-2.0219 1.7975-4.3424 1.7975-6.7097 0-7.2223-5.7205-13.0974-12.7528-13.0974zm0 19.6607c-3.5669 0-6.3905-2.9818-6.3905-6.5633 0-3.6111 2.8744-6.5632 6.3905-6.5632s6.3905 2.9521 6.3905 6.5632c0 3.55-2.7857 6.5633-6.3905 6.5633z" fill="#e0c08d"/></g></g></g></svg>