<svg width="200" height="100" viewBox="0 0 200 100" fill="none" xmlns="http://www.w3.org/2000/svg">
<g filter="url(#filter0_dd)">
<rect x="26" y="14.0212" width="143" height="68" rx="8" fill="white"/>
<path d="M44.3713 21.307C41.0906 21.307 38.4218 23.9283 38.4218 27.1508C38.4218 28.2393 38.7288 29.3017 39.3093 30.2234L44.0324 37.6988C44.2283 38.0095 44.69 38.0047 44.8798 37.6922L49.4823 30.1444C50.0304 29.2423 50.3209 28.207 50.3209 27.1508C50.3209 23.9283 47.6521 21.307 44.3713 21.307ZM44.3713 30.0791C42.7073 30.0791 41.39 28.7487 41.39 27.1508C41.39 25.5395 42.731 24.2224 44.3713 24.2224C46.0117 24.2224 47.3527 25.5395 47.3527 27.1508C47.3527 28.7346 46.0531 30.0791 44.3713 30.0791Z" fill="#CE8D80"/>
<path d="M103.571 21.307C100.291 21.307 97.6218 23.9283 97.6218 27.1508C97.6218 28.2393 97.9288 29.3017 98.5093 30.2234L103.232 37.6988C103.428 38.0095 103.89 38.0047 104.08 37.6922L108.682 30.1444C109.23 29.2423 109.521 28.207 109.521 27.1508C109.521 23.9283 106.852 21.307 103.571 21.307ZM103.571 30.0791C101.907 30.0791 100.59 28.7487 100.59 27.1508C100.59 25.5395 101.931 24.2224 103.571 24.2224C105.212 24.2224 106.553 25.5395 106.553 27.1508C106.553 28.7346 105.253 30.0791 103.571 30.0791Z" fill="#545C73"/>
<line x1="58.2961" y1="30.3308" x2="88.8961" y2="30.3308" stroke="#EAEAEA" stroke-width="3" stroke-linecap="round"/>
<rect x="38.4218" y="43.9736" width="23.2" height="4.53333" rx="2" fill="#F2EEE9"/>
<rect x="52.0028" y="67.4498" width="27.162" height="4.85714" rx="2" fill="#EAEAEA"/>
<rect x="76.8177" y="43.9736" width="22.4" height="4.53333" rx="2" fill="#F2EEE9"/>
<rect x="76.8177" y="53.6879" width="22.4" height="4.53334" rx="2" fill="#F2EEE9"/>
<rect x="38.4713" y="53.6879" width="30.4" height="4.53334" rx="2" fill="#F2EEE9"/>
<ellipse cx="42.8157" cy="69.4736" rx="4.39386" ry="4.45238" fill="#EAEAEA"/>
<path d="M175 62.0212C175 75.8284 163.807 87.0212 150 87.0212C136.193 87.0212 125 75.8284 125 62.0212C125 48.2141 136.193 37.0212 150 37.0212C163.807 37.0212 175 48.2141 175 62.0212Z" fill="#545C73"/>
<path d="M148.503 73.0212C148.017 73.0212 147.673 72.9245 147.472 72.7309C147.271 72.5374 147.171 72.2309 147.171 71.8116V70.7712H144.307C143.838 70.7712 143.503 70.6745 143.302 70.4809C143.101 70.2874 143 69.9809 143 69.5616V55.5535C143 55.1341 143.101 54.8277 143.302 54.6341C143.503 54.4245 143.838 54.3196 144.307 54.3196H147.171V53.2551C147.171 52.8358 147.271 52.5293 147.472 52.3358C147.673 52.1261 148.017 52.0212 148.503 52.0212H150.513C150.998 52.0212 151.342 52.1261 151.543 52.3358C151.76 52.5293 151.869 52.8358 151.869 53.2551V54.3196C155.655 54.4003 157.548 55.9729 157.548 59.0374C157.548 59.7793 157.372 60.4406 157.02 61.0212C156.668 61.6019 156.191 62.0132 155.588 62.2551C157.196 62.7551 158 63.9245 158 65.7632C158 67.3277 157.464 68.5454 156.392 69.4164C155.337 70.2712 153.829 70.7229 151.869 70.7712V71.8116C151.869 72.2632 151.752 72.5777 151.518 72.7551C151.3 72.9325 150.898 73.0212 150.312 73.0212H148.503ZM150.839 60.7551C151.358 60.7551 151.76 60.6341 152.045 60.3922C152.33 60.1341 152.472 59.7632 152.472 59.2793C152.472 58.7632 152.338 58.3922 152.07 58.1664C151.802 57.9406 151.392 57.8277 150.839 57.8277H148.075V60.7551H150.839ZM151.266 67.2632C151.802 67.2632 152.213 67.118 152.497 66.8277C152.799 66.5212 152.95 66.1261 152.95 65.6422C152.95 65.0938 152.791 64.6825 152.472 64.4083C152.154 64.1341 151.719 63.997 151.166 63.997H148.075V67.2632H151.266Z" fill="white"/>
</g>
<defs>
<filter id="filter0_dd" x="-17" y="-17" width="234" height="134" filterUnits="userSpaceOnUse" color-interpolation-filters="sRGB">
<feFlood flood-opacity="0" result="BackgroundImageFix"/>
<feColorMatrix in="SourceAlpha" type="matrix" values="0 0 0 0 0 0 0 0 0 0 0 0 0 0 0 0 0 0 127 0"/>
<feOffset dx="5" dy="5"/>
<feGaussianBlur stdDeviation="6"/>
<feColorMatrix type="matrix" values="0 0 0 0 0.9 0 0 0 0 0.9 0 0 0 0 0.9 0 0 0 0.5 0"/>
<feBlend mode="normal" in2="BackgroundImageFix" result="effect1_dropShadow"/>
<feColorMatrix in="SourceAlpha" type="matrix" values="0 0 0 0 0 0 0 0 0 0 0 0 0 0 0 0 0 0 127 0"/>
<feOffset dx="-5" dy="-5"/>
<feGaussianBlur stdDeviation="6"/>
<feColorMatrix type="matrix" values="0 0 0 0 0.99 0 0 0 0 0.99 0 0 0 0 0.99 0 0 0 0.5 0"/>
<feBlend mode="normal" in2="effect1_dropShadow" result="effect2_dropShadow"/>
<feBlend mode="normal" in="SourceGraphic" in2="effect2_dropShadow" result="shape"/>
</filter>
</defs>
</svg>
