<svg width="228" height="133" viewBox="0 0 228 133" fill="none" xmlns="http://www.w3.org/2000/svg">
<g filter="url(#filter0_dd)">
<rect x="21.5" y="21" width="179" height="84" rx="8" fill="white"/>
<path d="M44.4963 30C40.3896 30 37.049 33.2381 37.049 37.2188C37.049 38.5634 37.4332 39.8759 38.1599 41.0144L44.072 50.2487C44.3172 50.6325 44.8952 50.6266 45.1327 50.2405L50.8939 40.9168C51.5799 39.8024 51.9436 38.5235 51.9436 37.2188C51.9436 33.2381 48.6029 30 44.4963 30ZM44.4963 40.8361C42.4133 40.8361 40.7643 39.1927 40.7643 37.2188C40.7643 35.2284 42.4429 33.6014 44.4963 33.6014C46.5496 33.6014 48.2282 35.2284 48.2282 37.2188C48.2282 39.1753 46.6014 40.8361 44.4963 40.8361Z" fill="#CE8D80"/>
<path d="M118.6 30C114.493 30 111.152 33.2381 111.152 37.2188C111.152 38.5634 111.537 39.8759 112.263 41.0144L118.176 50.2487C118.421 50.6325 118.999 50.6266 119.236 50.2405L124.997 40.9168C125.683 39.8024 126.047 38.5235 126.047 37.2188C126.047 33.2381 122.706 30 118.6 30ZM118.6 40.8361C116.517 40.8361 114.868 39.1927 114.868 37.2188C114.868 35.2284 116.546 33.6014 118.6 33.6014C120.653 33.6014 122.332 35.2284 122.332 37.2188C122.332 39.1753 120.705 40.8361 118.6 40.8361Z" fill="#545C73"/>
<line x1="61.549" y1="41.5" x2="100.608" y2="41.5" stroke="#EAEAEA" stroke-width="3" stroke-linecap="round"/>
<rect x="37.049" y="58" width="29.0406" height="5.6" rx="2" fill="#F2EEE9"/>
<rect x="54.049" y="87" width="34" height="6" rx="2" fill="#EAEAEA"/>
<rect x="85.111" y="58" width="28.0392" height="5.6" rx="2" fill="#F2EEE9"/>
<rect x="85.111" y="70" width="28.0392" height="5.6" rx="2" fill="#F2EEE9"/>
<rect x="37.111" y="70" width="38.0531" height="5.6" rx="2" fill="#F2EEE9"/>
<circle cx="42.549" cy="89.5" r="5.5" fill="#EAEAEA"/>
<path d="M206.719 79.875C206.719 97.4791 192.448 111.75 174.844 111.75C157.24 111.75 142.969 97.4791 142.969 79.875C142.969 62.2709 157.24 48 174.844 48C192.448 48 206.719 62.2709 206.719 79.875Z" fill="#545C73"/>
<path d="M172.679 93.04C172.099 93.04 171.689 92.92 171.449 92.68C171.209 92.44 171.089 92.06 171.089 91.54V90.25H167.669C167.109 90.25 166.709 90.13 166.469 89.89C166.229 89.65 166.109 89.27 166.109 88.75V71.38C166.109 70.86 166.229 70.48 166.469 70.24C166.709 69.98 167.109 69.85 167.669 69.85H171.089V68.53C171.089 68.01 171.209 67.63 171.449 67.39C171.689 67.13 172.099 67 172.679 67H175.079C175.659 67 176.069 67.13 176.309 67.39C176.569 67.63 176.699 68.01 176.699 68.53V69.85C181.219 69.95 183.479 71.9 183.479 75.7C183.479 76.62 183.269 77.44 182.849 78.16C182.429 78.88 181.859 79.39 181.139 79.69C183.059 80.31 184.019 81.76 184.019 84.04C184.019 85.98 183.379 87.49 182.099 88.57C180.839 89.63 179.039 90.19 176.699 90.25V91.54C176.699 92.1 176.559 92.49 176.279 92.71C176.019 92.93 175.539 93.04 174.839 93.04H172.679ZM175.469 77.83C176.089 77.83 176.569 77.68 176.909 77.38C177.249 77.06 177.419 76.6 177.419 76C177.419 75.36 177.259 74.9 176.939 74.62C176.619 74.34 176.129 74.2 175.469 74.2H172.169V77.83H175.469ZM175.979 85.9C176.619 85.9 177.109 85.72 177.449 85.36C177.809 84.98 177.989 84.49 177.989 83.89C177.989 83.21 177.799 82.7 177.419 82.36C177.039 82.02 176.519 81.85 175.859 81.85H172.169V85.9H175.979Z" fill="white"/>
</g>
<defs>
<filter id="filter0_dd" x="0.5" y="0" width="227.219" height="132.75" filterUnits="userSpaceOnUse" color-interpolation-filters="sRGB">
<feFlood flood-opacity="0" result="BackgroundImageFix"/>
<feColorMatrix in="SourceAlpha" type="matrix" values="0 0 0 0 0 0 0 0 0 0 0 0 0 0 0 0 0 0 127 0"/>
<feOffset dx="9" dy="9"/>
<feGaussianBlur stdDeviation="6"/>
<feColorMatrix type="matrix" values="0 0 0 0 0.9 0 0 0 0 0.9 0 0 0 0 0.9 0 0 0 0.5 0"/>
<feBlend mode="normal" in2="BackgroundImageFix" result="effect1_dropShadow"/>
<feColorMatrix in="SourceAlpha" type="matrix" values="0 0 0 0 0 0 0 0 0 0 0 0 0 0 0 0 0 0 127 0"/>
<feOffset dx="-9" dy="-9"/>
<feGaussianBlur stdDeviation="6"/>
<feColorMatrix type="matrix" values="0 0 0 0 0.99 0 0 0 0 0.99 0 0 0 0 0.99 0 0 0 0.5 0"/>
<feBlend mode="normal" in2="effect1_dropShadow" result="effect2_dropShadow"/>
<feBlend mode="normal" in="SourceGraphic" in2="effect2_dropShadow" result="shape"/>
</filter>
</defs>
</svg>
