<svg width="246" height="139" viewBox="0 0 246 139" fill="none" xmlns="http://www.w3.org/2000/svg">
<g filter="url(#filter0_dd)">
<g clip-path="url(#clip0)">
<g filter="url(#filter1_dd)">
<rect x="30.5" y="23" width="179" height="84" rx="8" fill="white"/>
<path d="M53.4963 32C49.3896 32 46.049 35.2381 46.049 39.2188C46.049 40.5634 46.4332 41.8759 47.1599 43.0144L53.072 52.2487C53.3172 52.6325 53.8952 52.6266 54.1327 52.2405L59.8939 42.9168C60.5799 41.8024 60.9436 40.5235 60.9436 39.2188C60.9436 35.2381 57.6029 32 53.4963 32ZM53.4963 42.8361C51.4133 42.8361 49.7643 41.1927 49.7643 39.2188C49.7643 37.2284 51.4429 35.6014 53.4963 35.6014C55.5496 35.6014 57.2282 37.2284 57.2282 39.2188C57.2282 41.1753 55.6014 42.8361 53.4963 42.8361Z" fill="#CE8D80"/>
<path d="M127.6 32C123.493 32 120.152 35.2381 120.152 39.2188C120.152 40.5634 120.537 41.8759 121.263 43.0144L127.176 52.2487C127.421 52.6325 127.999 52.6266 128.236 52.2405L133.997 42.9168C134.683 41.8024 135.047 40.5235 135.047 39.2188C135.047 35.2381 131.706 32 127.6 32ZM127.6 42.8361C125.517 42.8361 123.868 41.1927 123.868 39.2188C123.868 37.2284 125.546 35.6014 127.6 35.6014C129.653 35.6014 131.332 37.2284 131.332 39.2188C131.332 41.1753 129.705 42.8361 127.6 42.8361Z" fill="#545C73"/>
<line x1="70.549" y1="43.5" x2="109.608" y2="43.5" stroke="#EAEAEA" stroke-width="3" stroke-linecap="round"/>
<rect x="46.049" y="60" width="29.0406" height="5.6" rx="2" fill="#F2EEE9"/>
<rect x="63.049" y="89" width="34" height="6" rx="2" fill="#EAEAEA"/>
<rect x="94.111" y="60" width="28.0392" height="5.6" rx="2" fill="#F2EEE9"/>
<rect x="94.111" y="72" width="28.0392" height="5.6" rx="2" fill="#F2EEE9"/>
<rect x="46.111" y="72" width="38.0531" height="5.6" rx="2" fill="#F2EEE9"/>
<circle cx="51.549" cy="91.5" r="5.5" fill="#EAEAEA"/>
<path d="M215.719 81.875C215.719 99.4791 201.448 113.75 183.844 113.75C166.24 113.75 151.969 99.4791 151.969 81.875C151.969 64.2709 166.24 50 183.844 50C201.448 50 215.719 64.2709 215.719 81.875Z" fill="#545C73"/>
<path d="M181.679 95.04C181.099 95.04 180.689 94.92 180.449 94.68C180.209 94.44 180.089 94.06 180.089 93.54V92.25H176.669C176.109 92.25 175.709 92.13 175.469 91.89C175.229 91.65 175.109 91.27 175.109 90.75V73.38C175.109 72.86 175.229 72.48 175.469 72.24C175.709 71.98 176.109 71.85 176.669 71.85H180.089V70.53C180.089 70.01 180.209 69.63 180.449 69.39C180.689 69.13 181.099 69 181.679 69H184.079C184.659 69 185.069 69.13 185.309 69.39C185.569 69.63 185.699 70.01 185.699 70.53V71.85C190.219 71.95 192.479 73.9 192.479 77.7C192.479 78.62 192.269 79.44 191.849 80.16C191.429 80.88 190.859 81.39 190.139 81.69C192.059 82.31 193.019 83.76 193.019 86.04C193.019 87.98 192.379 89.49 191.099 90.57C189.839 91.63 188.039 92.19 185.699 92.25V93.54C185.699 94.1 185.559 94.49 185.279 94.71C185.019 94.93 184.539 95.04 183.839 95.04H181.679ZM184.469 79.83C185.089 79.83 185.569 79.68 185.909 79.38C186.249 79.06 186.419 78.6 186.419 78C186.419 77.36 186.259 76.9 185.939 76.62C185.619 76.34 185.129 76.2 184.469 76.2H181.169V79.83H184.469ZM184.979 87.9C185.619 87.9 186.109 87.72 186.449 87.36C186.809 86.98 186.989 86.49 186.989 85.89C186.989 85.21 186.799 84.7 186.419 84.36C186.039 84.02 185.519 83.85 184.859 83.85H181.169V87.9H184.979Z" fill="white"/>
</g>
</g>
</g>
<defs>
<filter id="filter0_dd" x="0" y="-3" width="246" height="142" filterUnits="userSpaceOnUse" color-interpolation-filters="sRGB">
<feFlood flood-opacity="0" result="BackgroundImageFix"/>
<feColorMatrix in="SourceAlpha" type="matrix" values="0 0 0 0 0 0 0 0 0 0 0 0 0 0 0 0 0 0 127 0"/>
<feOffset dx="9" dy="9"/>
<feGaussianBlur stdDeviation="6"/>
<feColorMatrix type="matrix" values="0 0 0 0 0.9 0 0 0 0 0.9 0 0 0 0 0.9 0 0 0 0.5 0"/>
<feBlend mode="normal" in2="BackgroundImageFix" result="effect1_dropShadow"/>
<feColorMatrix in="SourceAlpha" type="matrix" values="0 0 0 0 0 0 0 0 0 0 0 0 0 0 0 0 0 0 127 0"/>
<feOffset dx="-9" dy="-9"/>
<feGaussianBlur stdDeviation="6"/>
<feColorMatrix type="matrix" values="0 0 0 0 0.99 0 0 0 0 0.99 0 0 0 0 0.99 0 0 0 0.5 0"/>
<feBlend mode="normal" in2="effect1_dropShadow" result="effect2_dropShadow"/>
<feBlend mode="normal" in="SourceGraphic" in2="effect2_dropShadow" result="shape"/>
</filter>
<filter id="filter1_dd" x="9.5" y="2" width="227.219" height="132.75" filterUnits="userSpaceOnUse" color-interpolation-filters="sRGB">
<feFlood flood-opacity="0" result="BackgroundImageFix"/>
<feColorMatrix in="SourceAlpha" type="matrix" values="0 0 0 0 0 0 0 0 0 0 0 0 0 0 0 0 0 0 127 0"/>
<feOffset dx="9" dy="9"/>
<feGaussianBlur stdDeviation="6"/>
<feColorMatrix type="matrix" values="0 0 0 0 0.9 0 0 0 0 0.9 0 0 0 0 0.9 0 0 0 0.5 0"/>
<feBlend mode="normal" in2="BackgroundImageFix" result="effect1_dropShadow"/>
<feColorMatrix in="SourceAlpha" type="matrix" values="0 0 0 0 0 0 0 0 0 0 0 0 0 0 0 0 0 0 127 0"/>
<feOffset dx="-9" dy="-9"/>
<feGaussianBlur stdDeviation="6"/>
<feColorMatrix type="matrix" values="0 0 0 0 0.99 0 0 0 0 0.99 0 0 0 0 0.99 0 0 0 0.5 0"/>
<feBlend mode="normal" in2="effect1_dropShadow" result="effect2_dropShadow"/>
<feBlend mode="normal" in="SourceGraphic" in2="effect2_dropShadow" result="shape"/>
</filter>
<clipPath id="clip0">
<rect x="21" y="18" width="204" height="100" fill="white"/>
</clipPath>
</defs>
</svg>
