<svg width="181" height="113" viewBox="0 0 181 113" fill="none" xmlns="http://www.w3.org/2000/svg">
<g filter="url(#filter0_dd)">
<path d="M56.0679 36.6702H31.0756L23.241 55.6825L21.5 57.4109V80.7442H22.3891H37.1692L39.5946 77.9182C41.3264 75.7405 43.9688 74.4872 46.7508 74.5241L56.0679 74.6474V36.6702Z" fill="#F2EEE9"/>
<rect x="63.8456" y="75.559" width="90.7407" height="6.04938" fill="#CE8D80"/>
<path d="M159.761 21.9788H63.8456V75.559H159.761L159.761 21.9788Z" fill="#F2EEE9"/>
<path d="M63.8457 21.9788L56.0679 21.9788L56.0679 81.5582L63.8457 81.6084V21.9788Z" fill="#4B5266"/>
<circle cx="47.8579" cy="82.0404" r="9.93827" fill="#3F3F3F"/>
<circle cx="47.858" cy="82.0404" r="4.75309" fill="white"/>
<circle cx="120.451" cy="82.0404" r="9.93827" fill="#3F3F3F"/>
<circle cx="120.451" cy="82.0404" r="4.75309" fill="white"/>
<circle cx="140.327" cy="82.0404" r="9.93827" fill="#3F3F3F"/>
<circle cx="140.327" cy="82.0404" r="4.75309" fill="white"/>
<path d="M46.5617 53.0899H24.2917L29.2373 40.9911H46.5617V53.0899Z" fill="#3F3F3F"/>
<path d="M26.2531 70.3738H21.5V67.7812H26.2531C26.969 67.7812 27.5494 68.3616 27.5494 69.0775C27.5494 69.7935 26.969 70.3738 26.2531 70.3738Z" fill="#3F3F3F"/>
</g>
<defs>
<filter id="filter0_dd" x="-13" y="-14.0212" width="208" height="142" filterUnits="userSpaceOnUse" color-interpolation-filters="sRGB">
<feFlood flood-opacity="0" result="BackgroundImageFix"/>
<feColorMatrix in="SourceAlpha" type="matrix" values="0 0 0 0 0 0 0 0 0 0 0 0 0 0 0 0 0 0 127 0"/>
<feOffset dx="9" dy="9"/>
<feGaussianBlur stdDeviation="6"/>
<feColorMatrix type="matrix" values="0 0 0 0 0.9 0 0 0 0 0.9 0 0 0 0 0.9 0 0 0 0.5 0"/>
<feBlend mode="normal" in2="BackgroundImageFix" result="effect1_dropShadow"/>
<feColorMatrix in="SourceAlpha" type="matrix" values="0 0 0 0 0 0 0 0 0 0 0 0 0 0 0 0 0 0 127 0"/>
<feOffset dx="-9" dy="-9"/>
<feGaussianBlur stdDeviation="6"/>
<feColorMatrix type="matrix" values="0 0 0 0 0.99 0 0 0 0 0.99 0 0 0 0 0.99 0 0 0 0.5 0"/>
<feBlend mode="normal" in2="effect1_dropShadow" result="effect2_dropShadow"/>
<feBlend mode="normal" in="SourceGraphic" in2="effect2_dropShadow" result="shape"/>
</filter>
</defs>
</svg>
