<svg width="200" height="100" viewBox="0 0 200 100" fill="none" xmlns="http://www.w3.org/2000/svg">
<g filter="url(#filter0_dd)">
<path d="M70.25 31.8774H48.3795L41.5236 48.5149L40 50.0274V70.4462H40.778H53.712L55.8344 67.9731C57.3498 66.0675 59.6622 64.9708 62.0967 65.003L70.25 65.1109V31.8774Z" fill="#F2EEE9"/>
<path d="M77.0563 65.9088H156.463V71.2026H77.0563V65.9088Z" fill="#CE8D80"/>
<path d="M160.991 19.0212H77.0563V65.9087H160.991L160.991 19.0212Z" fill="#F2EEE9"/>
<path d="M77.0563 19.0212L70.25 19.0212L70.25 71.1585L77.0563 71.2025V19.0212Z" fill="#4B5266"/>
<path d="M71.7625 71.5807C71.7625 76.3838 67.8687 80.2775 63.0656 80.2775C58.2624 80.2775 54.3687 76.3838 54.3687 71.5807C54.3687 66.7775 58.2624 62.8838 63.0656 62.8838C67.8687 62.8838 71.7625 66.7775 71.7625 71.5807Z" fill="#3F3F3F"/>
<path d="M67.225 71.5808C67.225 73.8779 65.3628 75.7401 63.0656 75.7401C60.7685 75.7401 58.9062 73.8779 58.9062 71.5808C58.9062 69.2836 60.7685 67.4214 63.0656 67.4214C65.3628 67.4214 67.225 69.2836 67.225 71.5808Z" fill="white"/>
<path d="M135.288 71.5807C135.288 76.3838 131.394 80.2775 126.591 80.2775C121.788 80.2775 117.894 76.3838 117.894 71.5807C117.894 66.7775 121.788 62.8838 126.591 62.8838C131.394 62.8838 135.288 66.7775 135.288 71.5807Z" fill="#3F3F3F"/>
<path d="M130.75 71.5808C130.75 73.8779 128.888 75.7401 126.591 75.7401C124.293 75.7401 122.431 73.8779 122.431 71.5808C122.431 69.2836 124.293 67.4214 126.591 67.4214C128.888 67.4214 130.75 69.2836 130.75 71.5808Z" fill="white"/>
<path d="M152.681 71.5807C152.681 76.3838 148.788 80.2775 143.984 80.2775C139.181 80.2775 135.288 76.3838 135.288 71.5807C135.288 66.7775 139.181 62.8838 143.984 62.8838C148.788 62.8838 152.681 66.7775 152.681 71.5807Z" fill="#3F3F3F"/>
<path d="M148.144 71.5808C148.144 73.8779 146.281 75.7401 143.984 75.7401C141.687 75.7401 139.825 73.8779 139.825 71.5808C139.825 69.2836 141.687 67.4214 143.984 67.4214C146.281 67.4214 148.144 69.2836 148.144 71.5808Z" fill="white"/>
<path d="M63 46.0212H43L47.4414 36.0212H63V46.0212Z" fill="#3F3F3F"/>
<path d="M43.5 59.0212H40V56.0212H43.5C44.3284 56.0212 45 56.6928 45 57.5212C45 58.3497 44.3284 59.0212 43.5 59.0212Z" fill="#3F3F3F"/>
</g>
<defs>
<filter id="filter0_dd" x="-17" y="-17" width="234" height="134" filterUnits="userSpaceOnUse" color-interpolation-filters="sRGB">
<feFlood flood-opacity="0" result="BackgroundImageFix"/>
<feColorMatrix in="SourceAlpha" type="matrix" values="0 0 0 0 0 0 0 0 0 0 0 0 0 0 0 0 0 0 127 0"/>
<feOffset dx="5" dy="5"/>
<feGaussianBlur stdDeviation="6"/>
<feColorMatrix type="matrix" values="0 0 0 0 0.9 0 0 0 0 0.9 0 0 0 0 0.9 0 0 0 0.5 0"/>
<feBlend mode="normal" in2="BackgroundImageFix" result="effect1_dropShadow"/>
<feColorMatrix in="SourceAlpha" type="matrix" values="0 0 0 0 0 0 0 0 0 0 0 0 0 0 0 0 0 0 127 0"/>
<feOffset dx="-5" dy="-5"/>
<feGaussianBlur stdDeviation="6"/>
<feColorMatrix type="matrix" values="0 0 0 0 0.99 0 0 0 0 0.99 0 0 0 0 0.99 0 0 0 0.5 0"/>
<feBlend mode="normal" in2="effect1_dropShadow" result="effect2_dropShadow"/>
<feBlend mode="normal" in="SourceGraphic" in2="effect2_dropShadow" result="shape"/>
</filter>
</defs>
</svg>
