<svg fill="none" height="139" viewBox="0 0 228 139" width="228" xmlns="http://www.w3.org/2000/svg" xmlns:xlink="http://www.w3.org/1999/xlink"><filter id="a" color-interpolation-filters="sRGB" filterUnits="userSpaceOnUse" height="142" width="228" x="0" y="-3"><feFlood flood-opacity="0" result="BackgroundImageFix"/><feColorMatrix in="SourceAlpha" type="matrix" values="0 0 0 0 0 0 0 0 0 0 0 0 0 0 0 0 0 0 127 0"/><feOffset dx="9" dy="9"/><feGaussianBlur stdDeviation="6"/><feColorMatrix type="matrix" values="0 0 0 0 0.9 0 0 0 0 0.9 0 0 0 0 0.9 0 0 0 0.5 0"/><feBlend in2="BackgroundImageFix" mode="normal" result="effect1_dropShadow"/><feColorMatrix in="SourceAlpha" type="matrix" values="0 0 0 0 0 0 0 0 0 0 0 0 0 0 0 0 0 0 127 0"/><feOffset dx="-9" dy="-9"/><feGaussianBlur stdDeviation="6"/><feColorMatrix type="matrix" values="0 0 0 0 0.99 0 0 0 0 0.99 0 0 0 0 0.99 0 0 0 0.5 0"/><feBlend in2="effect1_dropShadow" mode="normal" result="effect2_dropShadow"/><feBlend in="SourceGraphic" in2="effect2_dropShadow" mode="normal" result="shape"/></filter><clipPath id="b"><path d="m21 18h186v100h-186z"/></clipPath><clipPath id="c"><path d="m161.053 35.4174h27v27h-27z" transform="matrix(.94362372 .33102005 -.33102005 .94362372 20.803438 -51.315071)"/></clipPath><g filter="url(#a)"><g clip-path="url(#b)"><rect fill="#fff" height="79.9998" rx="8" width="170.476" x="21" y="38.0002"/><path d="m42.9011 46.5716c-3.9111 0-7.0926 3.0839-7.0926 6.875 0 1.2806.3659 2.5305 1.058 3.6148l5.6306 8.7946c.2335.3655.784.3599 1.0101-.0078l5.4869-8.8796c.6534-1.0614.9997-2.2794.9997-3.522 0-3.7911-3.1816-6.875-7.0927-6.875zm0 10.3201c-1.9838 0-3.5542-1.5652-3.5542-3.4451 0-1.8956 1.5987-3.4452 3.5542-3.4452 1.9556 0 3.5542 1.5496 3.5542 3.4452 0 1.8634-1.5493 3.4451-3.5542 3.4451z" fill="#ce8d80"/><path d="m113.476 46.5716c-3.911 0-7.093 3.0839-7.093 6.875 0 1.2806.366 2.5305 1.058 3.6148l5.631 8.7946c.233.3655.784.3599 1.01-.0078l5.487-8.8796c.653-1.0614.999-2.2794.999-3.522 0-3.7911-3.181-6.875-7.092-6.875zm0 10.3201c-1.984 0-3.555-1.5652-3.555-3.4451 0-1.8956 1.599-3.4452 3.555-3.4452 1.955 0 3.554 1.5496 3.554 3.4452 0 1.8634-1.549 3.4451-3.554 3.4451z" fill="#545c73"/><path d="m59.2132 57.4525h37.0558" stroke="#eaeaea" stroke-linecap="round" stroke-width="3"/><rect fill="#f2eee9" height="5.33332" rx="2" width="27.6576" x="35.8085" y="73.2382"/><rect fill="#eaeaea" height="5.71427" rx="2" width="32.3809" x="51.4761" y="100.857"/><rect fill="#f2eee9" height="5.33332" rx="2" width="26.7039" x="81.5817" y="73.2382"/><rect fill="#f2eee9" height="5.33332" rx="2" width="26.7039" x="81.5817" y="84.6667"/><rect fill="#f2eee9" height="5.33332" rx="2" width="36.241" x="35.8676" y="84.6667"/><ellipse cx="41.0466" cy="103.238" fill="#eaeaea" rx="5.23808" ry="5.23808"/><g fill="#545c73"><path d="m160.588 108.476c-.216 0-.368-.048-.458-.145-.089-.096-.134-.249-.134-.458v-.519h-1.273c-.208 0-.357-.049-.446-.145-.09-.097-.134-.25-.134-.459v-6.9879c0-.2092.044-.3621.134-.4586.089-.1046.238-.1569.446-.1569h1.273v-.5311c0-.2092.045-.362.134-.4586.09-.1046.242-.1569.458-.1569h.893c.216 0 .369.0523.458.1569.097.0966.145.2494.145.4586v.5311c1.683.0402 2.524.8247 2.524 2.3534 0 .37-.078.7-.234.99-.157.289-.369.495-.637.615.715.25 1.072.833 1.072 1.75 0 .781-.238 1.388-.715 1.823-.469.426-1.139.652-2.01.676v.519c0 .225-.052.382-.156.47-.097.089-.275.133-.536.133zm1.039-6.119c.23 0 .409-.06.536-.181.126-.129.189-.314.189-.555 0-.258-.059-.443-.178-.555-.119-.113-.302-.169-.547-.169h-1.229v1.46zm.189 3.247c.239 0 .421-.073.548-.218.134-.152.201-.35.201-.591 0-.274-.071-.479-.213-.616-.141-.136-.335-.205-.58-.205h-1.374v1.63z"/><path d="m169.159 108.476c-.215 0-.368-.048-.457-.145-.09-.096-.134-.249-.134-.458v-.519h-1.273c-.209 0-.358-.048-.447-.145s-.134-.249-.134-.459v-6.9878c0-.2092.045-.3621.134-.4587.089-.1046.238-.1569.447-.1569h1.273v-.531c0-.2092.044-.3621.134-.4586.089-.1046.242-.1569.457-.1569h.894c.216 0 .368.0523.458.1569.096.0965.145.2494.145.4586v.531c1.682.0403 2.524.8248 2.524 2.3534 0 .37-.079.7-.235.99s-.369.495-.637.615c.715.25 1.073.833 1.073 1.75 0 .781-.239 1.388-.715 1.823-.469.426-1.139.652-2.01.676v.519c0 .225-.052.382-.157.47-.096.089-.275.133-.536.133zm1.039-6.119c.231 0 .409-.06.536-.181.127-.129.19-.314.19-.555 0-.258-.06-.443-.179-.555-.119-.113-.301-.169-.547-.169h-1.228v1.46zm.19 3.247c.238 0 .42-.073.547-.218.134-.152.201-.35.201-.591 0-.273-.071-.479-.212-.615-.142-.137-.335-.206-.581-.206h-1.373v1.63z"/><path d="m177.731 108.476c-.216 0-.369-.048-.458-.145-.089-.096-.134-.249-.134-.458v-.519h-1.273c-.208 0-.357-.048-.447-.145-.089-.097-.134-.249-.134-.459v-6.9878c0-.2092.045-.3621.134-.4587.09-.1046.239-.1569.447-.1569h1.273v-.531c0-.2092.045-.3621.134-.4586.089-.1046.242-.1569.458-.1569h.893c.216 0 .369.0523.458.1569.097.0965.145.2494.145.4586v.531c1.683.0403 2.524.8248 2.524 2.3534 0 .37-.078.7-.235.99-.156.29-.368.495-.636.615.715.25 1.072.833 1.072 1.75 0 .781-.238 1.388-.715 1.823-.469.426-1.139.652-2.01.676v.519c0 .225-.052.382-.156.47-.097.089-.276.133-.536.133zm1.038-6.119c.231 0 .41-.06.536-.181.127-.129.19-.314.19-.555 0-.258-.059-.443-.178-.555-.12-.113-.302-.169-.548-.169h-1.228v1.46zm.19 3.247c.238 0 .421-.073.547-.218.134-.152.201-.35.201-.591 0-.273-.07-.479-.212-.615-.141-.137-.335-.206-.58-.206h-1.374v1.63z"/></g><path d="m184.414 32.0227 1.082.8072 1.038.8627.991.9159.942.9665.89 1.0144.836 1.0597.779 1.102.721 1.1412.66 1.1773.597 1.2103.533 1.2399.468 1.2661.4 1.2888.333 1.3081.264 1.3236.194 1.3356.123 1.344.054 1.3486-.017 1.3495-.088 1.3468-.159 1.3403-.228 1.3302-.297 1.3165-.366 1.2991-.434 1.2781-.499 1.2537-.565 1.2258-.628 1.1946-.69 1.1601-.749 1.1224-.808 1.0817-.862 1.0379-.916.9913-.967.9421-1.014.8901-1.06.8359-1.102.7792-1.141.7206-1.177.6598-1.211.5972-1.24.5332-1.266.4675-1.288.4005-1.309.3326-1.323.2637-1.336.1941-1.344.1238-1.348.0534-1.35-.0173-1.347-.0879-1.34-.1582-1.33-.2282-1.317-.2975-1.299-.366-1.278-.4334-1.254-.4998-1.225-.5647-1.195-.628-1.16-.6898-1.122-.7495-1.082-.8072-1.038-.8627-.991-.9159-.942-.9665-.891-1.0144-.835-1.0597-.78-1.1019-.72-1.1413-.66-1.1773-.597-1.2103-.533-1.2399-.468-1.2661-.4-1.2888-.333-1.308-.264-1.3237-.194-1.3356-.124-1.344-.053-1.3485.017-1.3496.088-1.3468.158-1.3403.229-1.3302.297-1.3165.366-1.299.433-1.2782.5-1.2537.565-1.2258.628-1.1946.69-1.1601.749-1.1224.807-1.0816.863-1.038.916-.9913.967-.942 1.014-.8902 1.06-.8359 1.102-.7792 1.141-.7205 1.177-.6598 1.21-.5973 1.24-.5331 1.266-.4675 1.289-.4006 1.308-.3326 1.324-.2637 1.336-.194 1.344-.1239 1.348-.0534 1.35.0173 1.346.0879 1.341.1582 1.33.2282 1.316.2975 1.299.366 1.279.4334 1.253.4998 1.226.5647 1.195.6281 1.16.6897z" fill="#ce8d80"/><g clip-path="url(#c)"><path d="m166.852 42.8295c.593-.1742.893-.8349.625-1.3927l-.094-.1961c-.217-.4513-.735-.6741-1.21-.5143-2.468.8315-4.272 1.6623-5.501 3.9729-.268.5028.01 1.1063.547 1.2948l.246.0861c.501.1756 1.042-.077 1.307-.5367.956-1.6617 2.277-2.1853 4.08-2.714zm12.696 8.5993c-.08.5242.185 1.0598.686 1.2354l.242.0851c.539.1889 1.134-.1106 1.238-.6717.475-2.5705-.412-4.3448-1.811-6.5301-.271-.4235-.817-.5735-1.27-.3542l-.193.0936c-.554.2686-.732.967-.38 1.4723 1.069 1.537 1.779 2.7731 1.488 4.6696zm-3.074 2.301c1.143-3.2591.359-6.5981-2.423-8.385l.253-.7219c.309-.8811-.153-1.8418-1.034-2.1509s-1.842.1526-2.151 1.0337l-.253.7219c-3.3-.3469-5.984 1.7637-7.131 5.0334l-1.588 4.5261c-.175.5006-.542.9109-1.02 1.1406l-1.662.7987c-.294.1414-.52.3938-.628.7018-.113.3207.056.6718.376.7843l15.825 5.551c.32.1125.671-.0563.784-.3769.108-.308.089-.6463-.052-.9404l-.799-1.6619c-.23-.4781-.26-1.0279-.085-1.5284zm-10.466 9.4429c.149.0522.291.0899.44.1065.742.0934 1.468-.1763 1.968-.7164.195-.2175.345-.4749.45-.7722l-4.247-1.4896c-.399 1.1715.211 2.4584 1.389 2.8717z" fill="#fff"/></g></g></g></svg>