<svg width="202" height="120" viewBox="0 0 202 120" fill="none" xmlns="http://www.w3.org/2000/svg">
<g filter="url(#filter0_dd)">
<g clip-path="url(#clip0)">
<rect x="27" y="35.6515" width="141.987" height="66.6306" rx="8" fill="white"/>
<path d="M45.2411 42.7905C41.9836 42.7905 39.3337 45.359 39.3337 48.5165C39.3337 49.5832 39.6385 50.6242 40.215 51.5273L44.9046 58.8522C45.0991 59.1566 45.5575 59.1519 45.7459 58.8457L50.3158 51.4499C50.86 50.566 51.1485 49.5515 51.1485 48.5165C51.1485 45.359 48.4986 42.7905 45.2411 42.7905ZM45.2411 51.3859C43.5888 51.3859 42.2809 50.0823 42.2809 48.5165C42.2809 46.9378 43.6123 45.6471 45.2411 45.6471C46.8699 45.6471 48.2013 46.9378 48.2013 48.5165C48.2013 50.0685 46.9109 51.3859 45.2411 51.3859Z" fill="#CE8D80"/>
<path d="M104.022 42.7905C100.764 42.7905 98.1142 45.359 98.1142 48.5165C98.1142 49.5832 98.419 50.6242 98.9954 51.5273L103.685 58.8522C103.88 59.1566 104.338 59.1519 104.526 58.8457L109.096 51.4499C109.64 50.566 109.929 49.5515 109.929 48.5165C109.929 45.359 107.279 42.7905 104.022 42.7905ZM104.022 51.3859C102.369 51.3859 101.061 50.0823 101.061 48.5165C101.061 46.9378 102.393 45.6471 104.022 45.6471C105.65 45.6471 106.982 46.9378 106.982 48.5165C106.982 50.0685 105.691 51.3859 104.022 51.3859Z" fill="#545C73"/>
<line x1="59.0778" y1="51.6024" x2="89.4397" y2="51.6024" stroke="#EAEAEA" stroke-width="3" stroke-linecap="round"/>
<rect x="39.3337" y="65.0007" width="23.0356" height="4.44204" rx="2" fill="#F2EEE9"/>
<rect x="52.3831" y="88.0041" width="26.9695" height="4.75933" rx="2" fill="#EAEAEA"/>
<rect x="77.4576" y="65.0007" width="22.2413" height="4.44204" rx="2" fill="#F2EEE9"/>
<rect x="77.4576" y="74.5193" width="22.2413" height="4.44204" rx="2" fill="#F2EEE9"/>
<rect x="39.3829" y="74.5193" width="30.1845" height="4.44204" rx="2" fill="#F2EEE9"/>
<ellipse cx="43.6965" cy="89.9871" rx="4.36272" ry="4.36272" fill="#EAEAEA"/>
<path d="M143.261 94.3498C143.081 94.3498 142.954 94.3096 142.879 94.2291C142.805 94.1487 142.768 94.0214 142.768 93.8471V93.4149H141.708C141.534 93.4149 141.41 93.3747 141.335 93.2943C141.261 93.2138 141.224 93.0865 141.224 92.9123V87.092C141.224 86.9177 141.261 86.7904 141.335 86.71C141.41 86.6229 141.534 86.5793 141.708 86.5793H142.768V86.137C142.768 85.9628 142.805 85.8354 142.879 85.755C142.954 85.6679 143.081 85.6243 143.261 85.6243H144.005C144.185 85.6243 144.312 85.6679 144.386 85.755C144.467 85.8354 144.507 85.9628 144.507 86.137V86.5793C145.908 86.6128 146.609 87.2662 146.609 88.5395C146.609 88.8478 146.544 89.1225 146.414 89.3638C146.283 89.6051 146.107 89.7759 145.884 89.8765C146.479 90.0842 146.776 90.5701 146.776 91.3341C146.776 91.9841 146.578 92.4901 146.181 92.852C145.791 93.2071 145.233 93.3948 144.507 93.4149V93.8471C144.507 94.0348 144.464 94.1655 144.377 94.2392C144.296 94.3129 144.147 94.3498 143.93 94.3498H143.261ZM144.126 89.2532C144.318 89.2532 144.467 89.203 144.572 89.1024C144.678 88.9952 144.73 88.8411 144.73 88.64C144.73 88.4256 144.681 88.2714 144.581 88.1776C144.482 88.0838 144.33 88.0369 144.126 88.0369H143.103V89.2532H144.126ZM144.284 91.9573C144.482 91.9573 144.634 91.897 144.74 91.7764C144.851 91.649 144.907 91.4848 144.907 91.2838C144.907 91.0559 144.848 90.8851 144.73 90.7711C144.612 90.6572 144.451 90.6002 144.247 90.6002H143.103V91.9573H144.284Z" fill="#545C73"/>
<path d="M150.4 94.3498C150.22 94.3498 150.093 94.3096 150.018 94.2291C149.944 94.1487 149.907 94.0214 149.907 93.8471V93.4149H148.846C148.673 93.4149 148.549 93.3747 148.474 93.2943C148.4 93.2138 148.363 93.0865 148.363 92.9123V87.092C148.363 86.9177 148.4 86.7904 148.474 86.71C148.549 86.6229 148.673 86.5793 148.846 86.5793H149.907V86.137C149.907 85.9628 149.944 85.8354 150.018 85.755C150.093 85.6679 150.22 85.6243 150.4 85.6243H151.144C151.324 85.6243 151.451 85.6679 151.525 85.755C151.606 85.8354 151.646 85.9628 151.646 86.137V86.5793C153.047 86.6128 153.748 87.2662 153.748 88.5395C153.748 88.8478 153.683 89.1225 153.553 89.3638C153.422 89.6051 153.246 89.7759 153.022 89.8765C153.618 90.0842 153.915 90.5701 153.915 91.3341C153.915 91.9841 153.717 92.4901 153.32 92.852C152.929 93.2071 152.371 93.3948 151.646 93.4149V93.8471C151.646 94.0348 151.603 94.1655 151.516 94.2392C151.435 94.3129 151.286 94.3498 151.069 94.3498H150.4ZM151.265 89.2532C151.457 89.2532 151.606 89.203 151.711 89.1024C151.816 88.9952 151.869 88.8411 151.869 88.64C151.869 88.4256 151.82 88.2714 151.72 88.1776C151.621 88.0838 151.469 88.0369 151.265 88.0369H150.242V89.2532H151.265ZM151.423 91.9573C151.621 91.9573 151.773 91.897 151.878 91.7764C151.99 91.649 152.046 91.4848 152.046 91.2838C152.046 91.0559 151.987 90.8851 151.869 90.7711C151.751 90.6572 151.59 90.6002 151.386 90.6002H150.242V91.9573H151.423Z" fill="#545C73"/>
<path d="M157.539 94.3498C157.359 94.3498 157.232 94.3096 157.157 94.2291C157.083 94.1487 157.046 94.0214 157.046 93.8471V93.4149H155.985C155.812 93.4149 155.688 93.3747 155.613 93.2943C155.539 93.2138 155.502 93.0865 155.502 92.9123V87.092C155.502 86.9177 155.539 86.7904 155.613 86.71C155.688 86.6229 155.812 86.5793 155.985 86.5793H157.046V86.137C157.046 85.9628 157.083 85.8354 157.157 85.755C157.232 85.6679 157.359 85.6243 157.539 85.6243H158.283C158.463 85.6243 158.59 85.6679 158.664 85.755C158.745 85.8354 158.785 85.9628 158.785 86.137V86.5793C160.186 86.6128 160.887 87.2662 160.887 88.5395C160.887 88.8478 160.822 89.1225 160.692 89.3638C160.561 89.6051 160.385 89.7759 160.161 89.8765C160.757 90.0842 161.054 90.5701 161.054 91.3341C161.054 91.9841 160.856 92.4901 160.459 92.852C160.068 93.2071 159.51 93.3948 158.785 93.4149V93.8471C158.785 94.0348 158.742 94.1655 158.655 94.2392C158.574 94.3129 158.425 94.3498 158.208 94.3498H157.539ZM158.404 89.2532C158.596 89.2532 158.745 89.203 158.85 89.1024C158.955 88.9952 159.008 88.8411 159.008 88.64C159.008 88.4256 158.959 88.2714 158.859 88.1776C158.76 88.0838 158.608 88.0369 158.404 88.0369H157.381V89.2532H158.404ZM158.562 91.9573C158.76 91.9573 158.912 91.897 159.017 91.7764C159.129 91.649 159.185 91.4848 159.185 91.2838C159.185 91.0559 159.126 90.8851 159.008 90.7711C158.89 90.6572 158.729 90.6002 158.525 90.6002H157.381V91.9573H158.562Z" fill="#545C73"/>
<path d="M163.49 28.2179L164.571 29.0252L165.609 29.8879L166.601 30.8037L167.543 31.7702L168.433 32.7847L169.269 33.8443L170.048 34.9463L170.769 36.0875L171.428 37.2649L172.026 38.4752L172.559 39.7151L173.026 40.9812L173.427 42.27L173.759 43.578L174.023 44.9017L174.217 46.2373L174.341 47.5812L174.394 48.9298L174.377 50.2793L174.289 51.6261L174.131 52.9665L173.903 54.2967L173.605 55.6131L173.239 56.9122L172.806 58.1903L172.306 59.4441L171.741 60.6699L171.113 61.8645L170.424 63.0246L169.674 64.147L168.867 65.2286L168.004 66.2665L167.088 67.2579L166.122 68.1999L165.107 69.0901L164.048 69.9259L162.946 70.7052L161.805 71.4257L160.627 72.0855L159.417 72.6828L158.177 73.2159L156.911 73.6834L155.622 74.084L154.314 74.4166L152.99 74.6803L151.655 74.8743L150.311 74.9982L148.962 75.0516L147.613 75.0343L146.266 74.9464L144.926 74.7881L143.595 74.56L142.279 74.2625L140.98 73.8965L139.702 73.463L138.448 72.9633L137.222 72.3986L136.028 71.7705L134.867 71.0808L133.745 70.3313L132.663 69.5241L131.626 68.6613L130.634 67.7455L129.692 66.779L128.802 65.7645L127.966 64.7049L127.187 63.6029L126.466 62.4617L125.807 61.2843L125.209 60.074L124.676 58.8341L124.209 57.5681L123.808 56.2792L123.475 54.9712L123.212 53.6476L123.018 52.3119L122.894 50.968L122.841 49.6194L122.858 48.2699L122.946 46.9231L123.104 45.5828L123.332 44.2525L123.63 42.9361L123.996 41.637L124.429 40.3589L124.929 39.1052L125.493 37.8793L126.122 36.6847L126.811 35.5246L127.561 34.4022L128.368 33.3206L129.231 32.2827L130.147 31.2914L131.113 30.3493L132.128 29.4591L133.187 28.6233L134.289 27.844L135.43 27.1235L136.608 26.4637L137.818 25.8664L139.058 25.3333L140.324 24.8658L141.613 24.4652L142.921 24.1326L144.245 23.869L145.58 23.6749L146.924 23.551L148.273 23.4977L149.622 23.5149L150.969 23.6028L152.309 23.7611L153.64 23.9893L154.956 24.2867L156.255 24.6527L157.533 25.0862L158.787 25.5859L160.013 26.1506L161.207 26.7787L162.367 27.4684L163.49 28.2179Z" fill="#CE8D80"/>
<g clip-path="url(#clip1)">
<path d="M145.927 39.0247C146.521 38.8506 146.821 38.1898 146.552 37.632L146.458 37.4359C146.241 36.9847 145.723 36.7619 145.249 36.9217C142.78 37.7531 140.976 38.5839 139.747 40.8946C139.48 41.3974 139.758 42.0008 140.295 42.1893L140.541 42.2755C141.041 42.451 141.583 42.1984 141.847 41.7388C142.803 40.0771 144.124 39.5534 145.927 39.0247ZM158.624 47.624C158.544 48.1483 158.809 48.6839 159.309 48.8594L159.552 48.9445C160.09 49.1334 160.685 48.834 160.789 48.2728C161.265 45.7023 160.377 43.928 158.979 41.7427C158.708 41.3192 158.161 41.1692 157.709 41.3886L157.516 41.4822C156.962 41.7508 156.784 42.4491 157.135 42.9545C158.204 44.4914 158.914 45.7275 158.624 47.624ZM155.55 49.925C156.693 46.666 155.909 43.327 153.126 41.54L153.379 40.8182C153.688 39.9371 153.227 38.9763 152.346 38.6672C151.464 38.3581 150.504 38.8199 150.195 39.701L149.941 40.4229C146.641 40.076 143.958 42.1866 142.811 45.4562L141.223 49.9824C141.047 50.4829 140.68 50.8932 140.202 51.123L138.54 51.9217C138.246 52.0631 138.02 52.3155 137.912 52.6235V52.6235C137.8 52.9441 137.968 53.2952 138.289 53.4077L154.113 58.9587C154.434 59.0712 154.785 58.9025 154.897 58.5818V58.5818C155.005 58.2738 154.987 57.9356 154.845 57.6414L154.047 55.9796C153.817 55.5015 153.786 54.9517 153.962 54.4512L155.55 49.925ZM145.084 59.368C145.232 59.4201 145.374 59.4579 145.523 59.4745C146.266 59.5679 146.992 59.2982 147.491 58.7581C147.687 58.5405 147.837 58.2831 147.941 57.9859L143.695 56.4963C143.296 57.6678 143.906 58.9546 145.084 59.368Z" fill="white"/>
</g>
</g>
</g>
<defs>
<filter id="filter0_dd" x="-17" y="0" width="234" height="134" filterUnits="userSpaceOnUse" color-interpolation-filters="sRGB">
<feFlood flood-opacity="0" result="BackgroundImageFix"/>
<feColorMatrix in="SourceAlpha" type="matrix" values="0 0 0 0 0 0 0 0 0 0 0 0 0 0 0 0 0 0 127 0"/>
<feOffset dx="5" dy="5"/>
<feGaussianBlur stdDeviation="6"/>
<feColorMatrix type="matrix" values="0 0 0 0 0.9 0 0 0 0 0.9 0 0 0 0 0.9 0 0 0 0.5 0"/>
<feBlend mode="normal" in2="BackgroundImageFix" result="effect1_dropShadow"/>
<feColorMatrix in="SourceAlpha" type="matrix" values="0 0 0 0 0 0 0 0 0 0 0 0 0 0 0 0 0 0 127 0"/>
<feOffset dx="-5" dy="-5"/>
<feGaussianBlur stdDeviation="6"/>
<feColorMatrix type="matrix" values="0 0 0 0 0.99 0 0 0 0 0.99 0 0 0 0 0.99 0 0 0 0.5 0"/>
<feBlend mode="normal" in2="effect1_dropShadow" result="effect2_dropShadow"/>
<feBlend mode="normal" in="SourceGraphic" in2="effect2_dropShadow" result="shape"/>
</filter>
<clipPath id="clip0">
<rect y="17" width="200" height="100" fill="white"/>
</clipPath>
<clipPath id="clip1">
<rect x="140.129" y="31.6127" width="27" height="27" transform="rotate(19.3307 140.129 31.6127)" fill="white"/>
</clipPath>
</defs>
</svg>
