<svg width="485" height="425" viewBox="0 0 485 425" fill="none" xmlns="http://www.w3.org/2000/svg">
<path d="M423.996 410.36C435.041 410.36 443.996 401.406 443.996 390.36V301.893L330.888 350.572C325.841 352.744 320.123 352.744 315.075 350.572L201.968 301.893V390.36C201.968 401.406 210.922 410.36 221.968 410.36H423.996Z" fill="white"/>
<path d="M443.996 301.893V390.36C443.996 401.406 435.041 410.36 423.996 410.36H221.968C210.922 410.36 201.968 401.406 201.968 390.36V301.893M443.996 301.893L330.888 350.572C325.841 352.744 320.123 352.744 315.075 350.572L201.968 301.893M443.996 301.893L333.594 232.782C327.103 228.719 318.861 228.719 312.37 232.782L201.968 301.893" stroke="white" stroke-width="8"/>
<path d="M399.991 231.108V275.883V316.501L331.139 347.014C325.987 349.297 320.111 349.301 314.955 347.024L246.973 316.998V275.883V231.108C246.973 226.69 250.555 223.108 254.973 223.108H391.991C396.409 223.108 399.991 226.69 399.991 231.108Z" fill="#F2EEE9"/>
<rect width="53.5919" height="10.3302" rx="3" transform="matrix(-1 0 0 1 377.988 251.993)" fill="white"/>
<rect width="87.3029" height="10.3302" rx="3" transform="matrix(-1 0 0 1 377.988 274.901)" fill="white"/>
<rect width="70.008" height="10.9562" rx="3" transform="matrix(-1 0 0 1 377.988 297.81)" fill="white"/>
<path fill-rule="evenodd" clip-rule="evenodd" d="M120.571 71.3681C126.908 94.6239 135.166 146.897 126.74 155.097H73.4266C73.4211 155.003 73.4158 154.909 73.4105 154.815C53.6504 152.638 38.2817 135.953 38.2817 115.693V77.2449C38.2817 55.5051 55.9778 37.8815 77.8069 37.8815H81.4837C101.307 37.8815 117.723 52.4158 120.571 71.3681Z" fill="black"/>
<path fill-rule="evenodd" clip-rule="evenodd" d="M58.9861 108.351C50.515 98.4485 44.7816 86.3127 45.7396 72.7141C48.5001 33.533 103.266 42.1523 113.919 61.9276C124.572 81.7029 123.306 131.865 109.538 135.399C104.047 136.808 92.3503 133.356 80.4457 126.21L87.918 178.857H43.7969L58.9861 108.351Z" fill="#CAAA8D"/>
<path fill-rule="evenodd" clip-rule="evenodd" d="M70.913 101.732C72.9458 123.479 72.1314 148.314 66.0731 154.209H12.76C9.78957 102.81 38.4973 122.714 38.4973 74.3206C40.2872 72.579 41.9784 70.8552 43.6519 69.3686L43.5926 67.9453C52.8244 49.1233 64.5364 39.7123 78.7288 39.7123C100.017 39.7123 106.737 49.5775 112.458 57.9532C108.18 72.5728 91.5772 74.7405 76.8248 83.8533C75.0859 82.4463 72.8685 81.603 70.4534 81.603C64.8692 81.603 60.3423 86.1114 60.3423 91.6727C60.3423 97.234 64.8692 101.742 70.4534 101.742C70.6074 101.742 70.7606 101.739 70.913 101.732Z" fill="black"/>
<path fill-rule="evenodd" clip-rule="evenodd" d="M124.141 233.234L187.951 198.429C198.562 185.88 209.017 176.134 219.316 169.19C222.463 167.882 227.966 167.09 222.819 176.187C217.673 185.284 212.67 195.084 215.292 197.887C217.914 200.689 224.452 196.774 227.58 201.431C229.666 204.535 218.496 209.439 194.07 216.143L147.705 258.422L124.141 233.234ZM224.079 262.6L252.108 247.266C256.041 232.362 260.742 224.864 266.212 224.77C270.413 222.823 263.096 241.655 271.061 240.022C279.027 238.389 298.468 223.989 301.818 226.913C306.773 231.238 302.354 244.52 297.148 251.127C287.417 263.475 279.36 267.698 259.446 273.228C249.035 276.119 237.777 281.914 225.675 290.613L224.079 262.6Z" fill="#CAAA8D"/>
<path fill-rule="evenodd" clip-rule="evenodd" d="M93.0652 225.481C115.415 225.246 145.22 220.545 177.021 200.441L189.51 228.179C167.574 249.859 136.731 267.672 109.761 266.918C88.5081 266.323 77.646 240.721 93.0652 225.481Z" fill="#C57868"/>
<path fill-rule="evenodd" clip-rule="evenodd" d="M123.16 269.963C146.887 275.856 186.677 268.907 242.529 249.114C256.383 277.657 262.787 298.006 261.741 310.161C213.829 335.086 163.235 341.07 129.402 341.804C130.478 361.796 129.403 398.56 123.16 415.038C116.917 431.515 41.9022 424.695 15.4228 415.038C-11.0566 405.38 3.14923 357.073 9.90769 274.062C12.6653 240.191 37.9511 155.056 43.5446 155.056H88.0388C90.8533 191.068 111.534 230.755 123.16 269.963Z" fill="#CE8D80"/>
<path d="M69.9528 78.6854V40.8367" stroke="#F2EEE9" stroke-width="6" stroke-linecap="round"/>
<rect width="27.0031" height="28.8846" rx="10" transform="matrix(-1 0 0 1 82.9543 77.6893)" fill="#F2EEE9"/>
<path d="M74.4541 100.598C83.751 111.931 88.3862 117.287 101.457 122.012" stroke="#F2EEE9" stroke-width="4" stroke-linecap="round"/>
<rect width="10.2465" height="5.97959" rx="2.9898" transform="matrix(-0.927301 -0.374317 -0.37689 0.926258 107.957 121.365)" fill="#F2EEE9"/>
<path d="M388.989 42.8765C388.989 36.249 383.617 30.8765 376.989 30.8765H205.967C199.34 30.8765 193.967 36.249 193.967 42.8765V115.866C193.967 119.725 192.111 123.349 188.979 125.604L170.391 138.99C167.912 140.775 169.376 144.691 172.419 144.412L193.967 142.431L377.479 134.933C383.911 134.67 388.989 129.38 388.989 122.943V42.8765Z" fill="#F2EEE9"/>
<rect x="224.026" y="58.765" width="53.5919" height="10.3302" rx="3" fill="white"/>
<rect x="224.026" y="78.5646" width="87.3029" height="10.3302" rx="3" fill="white"/>
<rect x="224.026" y="98.364" width="109.777" height="10.3302" rx="3" fill="white"/>
<ellipse rx="15.5018" ry="15.4383" transform="matrix(-1 0 0 1 157.463 15.4382)" fill="#F2EEE9"/>
<ellipse rx="8.00092" ry="7.96816" transform="matrix(-1 0 0 1 259.975 176.296)" fill="#F2EEE9"/>
<path d="M379.988 178.288L370.06 182.495C358.603 187.349 345.499 186.313 334.947 179.718V179.718C323.634 172.646 309.448 171.997 297.536 178.006L296.979 178.288" stroke="#CE8D80" stroke-width="11" stroke-linecap="round"/>
<path d="M482 259.508L477.447 261.424C472.202 263.63 466.213 263.159 461.379 260.158V260.158C456.194 256.941 449.712 256.646 444.256 259.378L443.996 259.508" stroke="#CE8D80" stroke-width="6" stroke-linecap="round"/>
<path opacity="0.1" d="M407.557 402.392C402.451 402.392 397.969 401.459 394.109 399.594C390.25 397.728 387.255 395.049 385.124 391.556C383.034 388.063 381.989 383.955 381.989 379.232C381.989 373.834 383.134 369.289 385.426 365.598C387.757 361.906 391.014 359.148 395.195 357.322C399.376 355.496 404.301 354.583 409.969 354.583C415.195 354.583 419.678 355.456 423.416 357.203C427.195 358.949 430.07 361.47 432.04 364.764C434.01 368.019 434.995 371.869 434.995 376.314C434.995 381.197 433.909 384.928 431.738 387.508C429.608 390.048 426.773 391.318 423.236 391.318C421.587 391.318 420.2 390.901 419.075 390.068C417.989 389.234 417.266 388.143 416.904 386.793C415.818 388.262 414.391 389.393 412.622 390.187C410.894 390.941 408.944 391.318 406.773 391.318C402.873 391.278 399.758 390.227 397.426 388.163C395.135 386.059 393.989 383.142 393.989 379.41C393.989 374.806 395.396 371.274 398.21 368.813C401.064 366.312 403.639 365.464 408.504 365.464C410.675 365.464 413.363 365.91 415.414 366.704C416.569 367.275 417.586 368.224 418.472 369.211C420.197 371.132 421.083 373.728 421.111 376.311L421.185 382.983C421.185 383.975 421.346 384.689 421.668 385.126C422.03 385.523 422.612 385.721 423.416 385.721C424.663 385.721 425.628 384.908 426.311 383.28C426.994 381.613 427.336 379.272 427.336 376.255C427.336 372.881 426.532 370.023 424.924 367.681C423.316 365.34 421.165 363.593 418.472 362.442C415.818 361.291 412.944 360.716 409.848 360.716C403.657 360.716 398.733 362.244 395.074 365.3C391.456 368.356 389.647 373 389.647 379.232C389.647 382.844 390.411 385.92 391.938 388.46C393.466 390.961 395.577 392.866 398.27 394.176C400.964 395.446 404.039 396.081 407.497 396.081C409.426 396.081 411.255 395.843 412.984 395.367C414.753 394.89 416.22 394.216 417.386 393.342C417.678 393.169 418.077 393.218 418.23 393.521L420.1 398.224C420.184 398.473 420.079 398.739 419.861 398.883C418.419 399.837 416.369 400.988 414.371 401.499C412.2 402.094 409.929 402.392 407.557 402.392ZM407.617 385.007C409.386 385.007 410.914 384.551 412.2 383.638C413.487 382.725 414.13 381.474 414.13 379.887V377.777C414.13 374.73 412.045 372.655 409.013 372.357C408.515 372.308 408.251 372.29 407.753 372.336C406.618 372.442 404.489 372.76 403.456 373.695C402.049 375.005 401.346 376.83 401.346 379.172C401.346 383.062 403.436 385.007 407.617 385.007Z" fill="#545C73"/>
</svg>
