<svg width="60" height="60" viewBox="0 0 60 60" fill="none" xmlns="http://www.w3.org/2000/svg">
<path d="M55.3039 30.1541C55.3039 16.2606 44.0433 5 30.152 5C16.2606 5 5 16.2606 5 30.1541C5 42.7059 14.198 53.1113 26.2217 54.9979V37.4236H19.8367V30.152H26.2217V24.6118C26.2217 18.3065 29.978 14.8248 35.7215 14.8248C38.4738 14.8248 41.3518 15.3153 41.3518 15.3153V21.5053H38.1824C35.0591 21.5053 34.0844 23.4442 34.0844 25.4335V30.1541H41.0605L39.9453 37.4257H34.0844V55C46.108 53.1134 55.306 42.708 55.306 30.1541H55.3039Z" fill="white"/>
</svg>
