<svg width="50" height="50" viewBox="0 0 50 50" fill="none" xmlns="http://www.w3.org/2000/svg">
<path d="M43.1362 22.7679C43.1362 20.1079 42.3224 17.6432 40.6948 15.3739C39.0672 13.1045 36.8583 11.3095 34.0681 9.98884C31.2779 8.66815 28.2366 8.00781 24.9442 8.00781C21.6518 8.00781 18.6105 8.66815 15.8203 9.98884C13.0301 11.3095 10.8212 13.1045 9.19364 15.3739C7.56603 17.6432 6.75223 20.1079 6.75223 22.7679C6.75223 26.4137 8.19382 29.6038 11.077 32.3382C13.9602 35.0725 17.5967 36.7281 21.9866 37.3047C22.8609 37.5093 23.391 37.8162 23.577 38.2254C23.7072 38.5603 23.7258 39.109 23.6328 39.8717C23.5026 40.7273 23.4189 41.2481 23.3817 41.4342C23.3073 42.0852 23.391 42.4758 23.6328 42.606C23.8932 42.7362 24.3304 42.6711 24.9442 42.4107C26.3021 41.8341 28.604 40.4157 31.8499 38.1557C35.0958 35.8956 37.5651 33.7984 39.2578 31.8638C41.8434 28.9993 43.1362 25.9673 43.1362 22.7679ZM37.0815 20.8426H33.5938V22.154H37.0815C37.3233 22.154 37.4442 22.2749 37.4442 22.5167V23.8002C37.4442 24.042 37.3233 24.1629 37.0815 24.1629H33.5938V25.4743H37.0815C37.3233 25.4743 37.4442 25.5952 37.4442 25.8371V27.1205C37.4442 27.3624 37.3233 27.4833 37.0815 27.4833H31.9755C31.7522 27.4833 31.6406 27.3624 31.6406 27.1205V19.1964C31.6406 18.9546 31.7522 18.8337 31.9755 18.8337H37.0815C37.3233 18.8337 37.4442 18.9546 37.4442 19.1964V20.4799C37.4442 20.7217 37.3233 20.8426 37.0815 20.8426ZM18.1641 25.4743C18.4059 25.4743 18.5268 25.5952 18.5268 25.8371V27.1205C18.5268 27.3624 18.4059 27.4833 18.1641 27.4833H13.0859C12.8627 27.4833 12.7511 27.3624 12.7511 27.1205V19.1964C12.7511 18.9546 12.8627 18.8337 13.0859 18.8337H14.3694C14.5926 18.8337 14.7042 18.9546 14.7042 19.1964V25.4743H18.1641ZM30.0502 18.8337C30.292 18.8337 30.413 18.9546 30.413 19.1964V27.1205C30.413 27.3624 30.292 27.4833 30.0502 27.4833H28.7667C28.6365 27.4833 28.5342 27.4275 28.4598 27.3158L24.8605 22.4051V27.1205C24.8605 27.3624 24.7396 27.4833 24.4978 27.4833H23.2143C22.9725 27.4833 22.8516 27.3624 22.8516 27.1205V19.1964C22.8516 18.9546 22.9725 18.8337 23.2143 18.8337H24.4978C24.5722 18.8337 24.6652 18.8895 24.7768 19.0011L28.404 23.9118V19.1964C28.404 18.9546 28.5249 18.8337 28.7667 18.8337H30.0502ZM21.2612 18.8337C21.503 18.8337 21.6239 18.9546 21.6239 19.1964V27.1205C21.6239 27.3624 21.503 27.4833 21.2612 27.4833H19.9777C19.7359 27.4833 19.615 27.3624 19.615 27.1205V19.1964C19.615 18.9546 19.7359 18.8337 19.9777 18.8337H21.2612ZM9.375 0H40.625C43.2106 0 45.4195 0.916109 47.2517 2.74833C49.0839 4.58054 50 6.78943 50 9.375V40.625C50 43.2106 49.0839 45.4195 47.2517 47.2517C45.4195 49.0839 43.2106 50 40.625 50H9.375C6.78943 50 4.58054 49.0839 2.74833 47.2517C0.916109 45.4195 0 43.2106 0 40.625V9.375C0 6.78943 0.916109 4.58054 2.74833 2.74833C4.58054 0.916109 6.78943 0 9.375 0Z" fill="white"/>
</svg>
