<svg width="82" height="72" viewBox="0 0 82 72" fill="none" xmlns="http://www.w3.org/2000/svg">
<path d="M5.90156 20.4818C4.34846 7.44732 13.4611 0.00146484 22.2079 0.00146484C31.1993 0.00146484 38.5143 7.31031 38.5143 16.2943V29.8811C44.6199 30.0379 50.4964 32.3028 55.1288 36.3003L78.3392 56.3287C80.2378 57.9675 79.078 61.0993 76.5628 61.0993H73.8321L81.0333 67.1704C82.9637 68.7978 81.8092 71.9613 79.2807 71.9613H37.1556L31.7201 71.9273C29.853 71.835 28.0349 71.554 26.2846 71.1022C24.5344 70.6504 20.8492 69.052 20.8492 69.052C11.9898 64.5725 5.90156 55.3873 5.90156 44.8068C5.90156 42.6977 5.90156 28.7676 5.90156 27.3094L0.621201 23.5853L5.90156 20.4818ZM51.576 40.4105C47.7587 37.1166 42.8789 35.3025 37.8351 35.3025C32.2154 35.3025 27.6435 39.8706 27.6435 45.4855C27.6435 51.1004 32.2154 55.6685 37.8351 55.6685H69.258L51.576 40.4105ZM11.3369 44.8066C11.3369 56.7852 21.0904 66.5304 33.0788 66.5304H71.8453L65.4034 61.0994H37.8349C29.2181 61.0994 22.2079 54.0951 22.2079 45.4855C22.2079 38.5324 26.7806 32.6271 33.0788 30.6119V16.2943C33.0788 10.305 28.2022 5.4324 22.2079 5.4324C16.2117 5.4324 11.3369 10.2805 11.3369 16.2943V44.8066Z" fill="white"/>
<path d="M18.0152 16.1379C19.0429 16.1379 19.8788 16.9731 19.8788 18C19.8788 19.0269 19.0429 19.8621 18.0152 19.8621C16.9874 19.8621 16.1515 19.0269 16.1515 18C16.1515 16.9731 16.9874 16.1379 18.0152 16.1379Z" fill="white"/>
<path d="M75.0301 10.5517C75.0301 15.2731 71.199 19.1034 66.4695 19.1034C61.7401 19.1034 57.9089 15.2731 57.9089 10.5517C57.9089 5.83032 61.7401 2 66.4695 2C71.199 2 75.0301 5.83032 75.0301 10.5517Z" stroke="white" stroke-width="4"/>
</svg>
